<?xml version="1.0" encoding="UTF-8" standalone="no"?>
<!-- Created with Inkscape (http://www.inkscape.org/) -->

<svg
   version="1.1"
   width="1005.4"
   height="1005.4"
   id="svg2"
   xml:space="preserve"
   inkscape:version="1.1 (c68e22c387, 2021-05-23)"
   sodipodi:docname="Japan_road_sign_325-4.svg"
   xmlns:inkscape="http://www.inkscape.org/namespaces/inkscape"
   xmlns:sodipodi="http://sodipodi.sourceforge.net/DTD/sodipodi-0.dtd"
   xmlns="http://www.w3.org/2000/svg"
   xmlns:svg="http://www.w3.org/2000/svg"
   xmlns:rdf="http://www.w3.org/1999/02/22-rdf-syntax-ns#"
   xmlns:cc="http://creativecommons.org/ns#"
   xmlns:dc="http://purl.org/dc/elements/1.1/"><sodipodi:namedview
     pagecolor="#ffffff"
     bordercolor="#666666"
     borderopacity="1"
     objecttolerance="10"
     gridtolerance="10"
     guidetolerance="10"
     inkscape:pageopacity="0"
     inkscape:pageshadow="2"
     inkscape:window-width="1366"
     inkscape:window-height="705"
     id="namedview28"
     showgrid="false"
     fit-margin-top="0.2"
     fit-margin-left="0.2"
     fit-margin-right="0.2"
     fit-margin-bottom="0.2"
     inkscape:zoom="0.5"
     inkscape:cx="519"
     inkscape:cy="397"
     inkscape:window-x="-8"
     inkscape:window-y="-8"
     inkscape:window-maximized="1"
     inkscape:current-layer="svg2"
     inkscape:pagecheckerboard="0" /><metadata
     id="metadata8"><rdf:RDF><cc:Work
         rdf:about=""><dc:format>image/svg+xml</dc:format><dc:type
           rdf:resource="http://purl.org/dc/dcmitype/StillImage" /></cc:Work></rdf:RDF></metadata><defs
     id="defs6"><linearGradient
       id="linearGradient15703"
       inkscape:swatch="solid"><stop
         style="stop-color:#ffffff;stop-opacity:1;"
         offset="0"
         id="stop15705" /></linearGradient></defs><path
     inkscape:connector-curvature="0"
     style="fill:#ffffff;fill-opacity:1;stroke:#0066b3;stroke-width:5;stroke-miterlimit:4;stroke-opacity:1;stroke-dasharray:none"
     d="m 2.69998,502.7 c 0,-276.1424 223.85772,-500 500.0001,-500 276.14238,0 500.00002,223.8576 500.00002,500 0,276.1423 -223.85764,500.0001 -500.00002,500.0001 C 226.5577,1002.7001 2.69998,778.8423 2.69998,502.7 z"
     id="path3854" /><path
     id="path14622"
     d="m 37.325,502.7 c 0,257.0196 208.35548,465.375 465.375,465.375 257.01958,0 465.37508,-208.3554 465.37508,-465.375 C 968.07508,245.6804 759.71958,37.325 502.7,37.325 245.68048,37.325 37.325,245.6804 37.325,502.7 z"
     style="fill:#0066b3;fill-opacity:1;stroke:none"
     inkscape:connector-curvature="0"
     sodipodi:nodetypes="sssss" /><path
     id="Unnamed"
     fill="none"
     stroke="black"
     stroke-width="1.08183"
     d="m 593.38044,500.49339 c 0,0 2.21771,-15.93517 27.69459,-23.2591 17.76342,-2.78022 53.93943,8.37328 53.93943,8.37328 0,0 -10.20155,-30.30172 -10.20155,-30.30172 0,0 17.33072,-5.07371 17.33072,-5.07371 0,0 1.73091,28.37605 1.73091,28.37605 0,0 23.95147,-20.67353 23.95147,-20.67353 0,0 6.09064,17.4714 6.09064,17.4714 0,0 -28.02993,15.54573 -28.02993,15.54573 0,0 23.62693,10.25563 21.52816,39.01035 -6.90195,30.88592 -40.0489,48.68187 -40.0489,48.68187 0,0 26.47212,7.73499 44.51683,40.71964 12.86286,27.3159 8.20021,58.12608 4.18666,94.11818 -2.00138,14.53965 -7.94057,11.20766 -7.94057,11.20766 0,0 -1.12509,6.25289 -4.8249,6.75054 -2.7586,0.60582 -7.63763,-0.70318 -9.50918,-3.32115 -1.9581,-2.73702 -0.55174,-7.82158 -0.55174,-7.82158 0,0 -3.94862,-0.4868 -4.17581,-6.2962 0.51927,-16.40035 3.47267,-62.37763 -5.8851,-61.89082 -5.56055,-0.0113 -5.05209,23.31318 -0.68156,45.31736 3.75394,18.93185 9.70394,37.40931 7.03185,43.60812 -2.3692,4.21908 -9.24953,1.24407 -12.78709,5.73362 -4.90065,6.20965 -6.90202,19.32132 -8.9142,29.17663 -1.14675,4.84656 4.14334,21.52822 8.35166,34.87789 2.39081,7.59432 5.44153,14.66945 4.8898,19.8946 0.37863,4.71674 -3.6782,8.42737 -7.42129,12.59241 -7.29143,8.10278 -17.59034,14.97233 -21.10625,13.92295 -1.56865,-0.076 -3.99193,-0.70315 -5.58217,-5.43073 -0.62748,-3.8188 2.69371,-8.0595 5.65788,-12.88441 1.47129,-2.40166 1.96894,-3.97032 2.95336,-6.66403 1.19002,-3.25625 3.49428,-4.66265 1.87158,-11.41319 -1.94729,-7.44291 -18.91022,-28.15971 -25.09821,-41.93129 -4.33811,-9.81207 -3.54837,-30.58299 -3.54837,-30.58299 0,0 -17.43888,18.75874 -18.63971,39.984 -1.35228,25.74728 8.53557,52.89011 5.61464,61.44726 -0.85463,4.66265 -7.38883,6.40441 -13.93384,9.27122 -8.04873,3.5159 -16.76816,7.12921 -20.51125,3.27791 -3.27792,-3.40774 -3.65656,-4.99801 -2.96418,-7.56193 1.78499,-6.4368 14.65861,-14.17179 13.13324,-22.83719 -2.00133,-16.80061 -14.8317,-43.71629 -14.47472,-59.35933 0.17311,-11.44566 12.62485,-32.1625 10.53694,-41.35794 -2.10954,-7.72418 -21.4092,-11.58629 -23.98394,-23.6053 -0.46518,-4.45709 4.06764,-10.74244 9.96355,-21.37675 4.27319,-7.5078 9.61739,-15.15624 13.97711,-24.97916 8.68697,-18.94265 16.42199,-35.84065 13.83645,-42.98064 -2.03384,-4.06764 -7.95139,-5.24685 -14.96153,-8.44902 -9.42265,-4.31644 -20.52213,-11.07783 -26.58032,-18.93184 -18.38006,-23.63769 -19.02916,-55.82181 -19.02916,-55.82181 0,0 -4.13255,-2.40166 -7.69175,-8.92501 -3.86208,-7.05347 -7.17246,-18.30433 -7.17246,-18.30433 0,0 -6.73972,-1.36312 -9.11974,-7.45376 -5.93914,-15.24283 -18.31517,-46.59394 -28.01908,-75.27293 -10.75324,-31.773 -18.36926,-61.92328 -18.36926,-61.92328 0,0 -3.98111,28.05155 -3.19138,45.24162 7.83239,59.06734 23.46464,87.54075 22.78309,94.47524 -2.06628,9.32526 -13.76071,3.11561 -14.64779,13.02504 0.57335,37.72305 16.15152,124.22525 10.89388,159.28698 -3.41856,30.39908 -13.79316,64.27083 -22.00416,91.88969 -8.53557,34.03401 -16.51939,55.3999 -17.61202,65.39592 -0.11902,15.16713 28.4302,29.29565 22.07992,39.77847 -6.95608,10.54772 -18.83447,2.38001 -32.80073,-4.84656 -14.59374,-7.56189 -30.07457,-16.42201 -33.87172,-21.01973 -5.23601,-7.83236 -4.3381,-13.23065 -2.14204,-16.67082 2.20693,-3.45101 5.72281,-4.94392 5.72281,-4.94392 0,0 -3.25623,-2.82354 -3.38606,-6.91283 0,-2.6072 0.38946,-2.46656 3.19135,-19.37534 3.39691,-20.87913 8.806,-58.6995 12.22456,-87.80043 1.73091,-14.70187 4.98717,-27.78107 4.79246,-42.59119 -1.80664,-25.466 -16.43285,-89.08774 -20.23,-102.83766 -1.19,-2.41243 -2.29346,-2.22852 -3.10481,-1.43879 -0.80055,0.7897 -1.30901,2.17444 -1.30901,2.17444 0,0 -1.52536,97.98028 -7.97302,185.35877 -2.92089,39.46477 -10.62345,76.59277 -12.9061,102.22102 -0.68155,12.4193 15.44838,21.97176 13.25228,30.53976 -6.63154,24.51401 -58.63458,-30.43155 -62.26946,-41.77981 -2.05546,-6.37194 0.1731,-10.43958 2.92089,-12.9061 2.73699,-2.46656 5.98246,-3.34284 5.98246,-3.34284 0,0 16.38957,-106.15884 -4.96554,-301.09172 -0.46522,-4.35972 -12.97099,-3.46182 -14.49634,-22.03661 -2.28264,0.5625 24.5897,-144.13071 5.06291,-146.25105 -0.36775,1.19 -9.83377,-2.32593 -12.90611,29.91227 -6.32866,54.61018 -0.065,133.91827 -0.88709,136.88248 -1.14675,4.20827 -4.30564,4.63018 -4.30564,4.63018 0,0 6.22046,14.84255 -3.72147,24.33011 -5.54975,2.83434 -9.41182,0.49761 -11.88915,-2.53146 -2.48821,-3.02906 -3.59169,-6.77219 -3.59169,-6.77219 0,0 -3.85126,1.2333 -5.99327,-2.59635 -3.12642,-5.59302 -4.7167,-16.32469 -4.7167,-16.32469 0,0 -1.59027,0.35717 -3.27794,-0.24869 -1.67683,-0.61663 -3.45098,-2.19605 -3.84042,-6.07982 -0.5842,-29.68505 -32.68176,-167.88736 34.54243,-270.54113 8.568,-9.282 21.79869,-14.64784 35.31058,-19.93792 20.61948,-8.07038 43.97591,-15.52408 47.56755,-16.46527 3.73228,-0.94119 7.23738,-1.57946 7.5511,-8.07037 -0.29209,-6.15555 -8.48148,-9.31446 -14.40982,-25.64993 -5.6363,-14.24753 -5.69039,-30.48563 -5.69039,-30.48563 0,0 -5.117,-1.39555 -11.00206,-2.84519 -5.48484,-1.35226 -11.68365,-2.65045 -13.85811,-5.39827 -0.7248,-0.90873 -0.97363,-3.81882 -0.27047,-4.93308 1.80665,-2.95338 23.9731,-7.97302 23.9731,-7.97302 0,0 5.82019,-36.35991 45.10102,-36.23009 38.2531,4.13253 41.71492,39.74602 41.71492,39.74602 0,0 6.25291,2.3259 12.53829,4.74917 5.83101,2.23936 11.8567,3.79719 11.08861,9.10892 -1.13591,6.4909 -27.21854,6.50172 -27.21854,6.50172 -5.72282,45.05774 -23.56199,46.00975 -21.91762,55.60548 2.31509,13.3496 62.70219,18.01226 75.82465,48.33563 15.45917,39.37818 6.37191,70.27496 12.54907,101.09595 18.28275,68.36011 30.11786,118.58899 35.59183,138.33214 2.44491,9.7688 -3.75388,11.09945 -3.75388,11.09945 0,0 4.29479,9.34689 4.95469,17.22252 0.54091,6.38275 -2.53145,11.5971 -2.53145,11.5971 0,0 1.67683,0.0971 3.10481,1.33066 4.48956,14.50719 13.77157,28.4951 26.87241,36.96574 17.04945,11.27256 47.31869,15.43756 48.14089,6.14472 0.98445,-7.82154 -38.43701,-18.08802 -27.21856,-74.1911 16.37878,-1.25492 -12.45171,-2.53149 -12.45171,-2.53149 z"
     style="fill:#ffffff;fill-opacity:1;stroke:none" /></svg>
