<?xml version="1.0" encoding="UTF-8" standalone="no"?>
<!-- Created with Inkscape (http://www.inkscape.org/) -->

<svg
   xmlns:dc="http://purl.org/dc/elements/1.1/"
   xmlns:cc="http://creativecommons.org/ns#"
   xmlns:rdf="http://www.w3.org/1999/02/22-rdf-syntax-ns#"
   xmlns:svg="http://www.w3.org/2000/svg"
   xmlns="http://www.w3.org/2000/svg"
   xmlns:sodipodi="http://sodipodi.sourceforge.net/DTD/sodipodi-0.dtd"
   xmlns:inkscape="http://www.inkscape.org/namespaces/inkscape"
   width="73.078003cm"
   height="64.681cm"
   viewBox="0 0 730.78002 646.80997"
   version="1.1"
   id="svg8"
   inkscape:version="0.92.2 (5c3e80d, 2017-08-06)"
   sodipodi:docname="99.svg">
  <defs
     id="defs2" />
  <sodipodi:namedview
     id="base"
     pagecolor="#ffffff"
     bordercolor="#666666"
     borderopacity="1.0"
     inkscape:pageopacity="0.0"
     inkscape:pageshadow="2"
     inkscape:zoom="0.16340226"
     inkscape:cx="1623.7039"
     inkscape:cy="685.29701"
     inkscape:document-units="cm"
     inkscape:current-layer="layer1"
     showgrid="false"
     units="cm"
     fit-margin-top="0"
     fit-margin-left="0"
     fit-margin-right="0"
     fit-margin-bottom="0"
     inkscape:snap-global="false"
     inkscape:window-width="1920"
     inkscape:window-height="1057"
     inkscape:window-x="-8"
     inkscape:window-y="-8"
     inkscape:window-maximized="1"
     inkscape:measure-start="0,0"
     inkscape:measure-end="0,0" />
  <metadata
     id="metadata5">
    <rdf:RDF>
      <cc:Work
         rdf:about="">
        <dc:format>image/svg+xml</dc:format>
        <dc:type
           rdf:resource="http://purl.org/dc/dcmitype/StillImage" />
        <dc:title></dc:title>
      </cc:Work>
    </rdf:RDF>
  </metadata>
  <g
     inkscape:label="Layer 1"
     inkscape:groupmode="layer"
     id="layer1"
     transform="translate(-58.609766,371.81)">
    <path
       style="fill:none;fill-opacity:1;stroke:#be121e;stroke-width:99.99999237;stroke-linecap:butt;stroke-linejoin:round;stroke-miterlimit:4;stroke-dasharray:none;stroke-opacity:1"
       d="M 110.6061,-319.80866 423.99968,223.00499 737.39342,-319.80826 Z"
       id="path1110"
       inkscape:connector-curvature="0"
       sodipodi:nodetypes="cccc" />
    <path
       style="fill:none;fill-opacity:1;stroke:#ffffff;stroke-width:70;stroke-linejoin:round;stroke-miterlimit:4;stroke-dasharray:none;stroke-opacity:1"
       d="m 424.00239,223.00391 -313.39262,-542.81216 626.7851,-4.1e-4 z"
       id="rect5050"
       inkscape:connector-curvature="0"
       sodipodi:nodetypes="cccc" />
    <path
       sodipodi:nodetypes="cccc"
       inkscape:connector-curvature="0"
       id="path1001"
       d="m 423.99982,222.99936 -313.39005,-542.8076 626.77996,-4.1e-4 z"
       style="fill:#be121e;fill-opacity:1;stroke:#be121e;stroke-width:40;stroke-linejoin:round;stroke-miterlimit:4;stroke-dasharray:none;stroke-opacity:1" />
    <path
       id="path18"
       d="M 351.81998,-143.29855 H 308.3698 v -47.87291 c 0.0986,-0.0511 0.19983,-0.093 0.29642,-0.14719 l 27.23198,-15.14929 c 3.93588,-2.19117 5.35539,-7.15692 3.16753,-11.09085 -2.18576,-3.9366 -7.14797,-5.35334 -11.08385,-3.16758 l -19.61193,10.89981 v -39.02229 c 0,-4.50154 -3.64963,-8.15116 -8.15116,-8.15116 -4.50159,0 -8.14912,3.64962 -8.14912,8.15116 v 105.54999 h -18.94579 v -48.68449 c 0,-4.50557 -3.64963,-8.16225 -8.15116,-8.16225 -4.50159,0 -8.15122,3.65647 -8.15122,8.16225 v 48.68449 h -18.67058 c -4.50225,0 -8.15116,3.6484 -8.15116,8.14978 0,4.50138 3.64891,8.14907 8.15116,8.14907 h 113.66957 c 4.50158,0 8.14911,-3.64769 8.14911,-8.14907 0,-4.50138 -3.64753,-8.14978 -8.14911,-8.14978"
       inkscape:connector-curvature="0"
       style="fill:#ffffff;stroke:none;stroke-width:0.26458284" />
    <path
       id="path20"
       d="m 467.43844,-148.24048 c -10.17675,-6.32428 -20.22721,-10.30748 -29.49328,-12.77857 v -22.81457 h 25.18979 c 4.50153,0 8.14978,-3.64963 8.14978,-8.14907 0,-4.50562 -3.6484,-8.16225 -8.14978,-8.16225 h -25.18979 v -16.76111 h 25.18979 c 4.50153,0 8.14978,-3.64963 8.14978,-8.14978 0,-4.50276 -3.6484,-8.15121 -8.14978,-8.15121 h -25.18979 v -15.64151 c 0,-4.50153 -3.6484,-8.15116 -8.15259,-8.15116 -4.50159,0 -8.14912,3.64963 -8.14912,8.15116 v 15.64151 h -32.65728 c -4.50159,0 -8.14912,3.64845 -8.14912,8.15121 0,4.50015 3.64774,8.14978 8.14912,8.14978 h 32.65728 v 16.76111 h -32.65728 c -4.50159,0 -8.14912,3.65648 -8.14912,8.16225 0,4.49944 3.64774,8.14907 8.14912,8.14907 h 32.65728 v 19.76269 c -4.20368,-0.45587 -8.07577,-0.62933 -11.50978,-0.62933 -9.22084,0 -14.97542,0.90383 -19.24207,3.02857 -4.05649,2.0194 -8.89078,6.27025 -8.89078,15.06849 0,19.60313 19.71537,19.60313 28.133,19.60313 17.92033,0 25.57897,-10.5464 27.43008,-17.16516 6.78982,2.13158 13.98915,5.24658 21.26842,9.77126 3.8237,2.3747 8.84837,1.20235 11.22568,-2.62119 0.83264,-1.33942 1.22847,-2.82731 1.22847,-4.2947 0,-2.72392 -1.3638,-5.38682 -3.84803,-6.93098 z m -48.21645,5.00152 h -18.7495 c -1.63937,0 -2.96632,-1.32578 -2.96632,-2.96632 0,-1.63518 1.32695,-2.96213 2.96632,-2.96213 h 18.75824 c 1.63727,0 2.96228,1.32695 2.96228,2.96213 0,1.64054 -1.32521,2.96632 -2.96244,2.96632"
       inkscape:connector-curvature="0"
       style="fill:#ffffff;stroke:none;stroke-width:0.26458284" />
    <path
       id="path22"
       d="m 620.68068,-154.73617 c -2.44186,-3.77918 -7.4884,-4.8644 -11.26948,-2.42065 0,0 -3.02243,1.95087 -5.14104,3.32167 v -58.93397 c 0,-4.6733 -1.85709,-8.91736 -4.86843,-12.04109 -0.0751,-0.0823 -0.14106,-0.16661 -0.21925,-0.24531 -1.40775,-1.40781 -3.00051,-2.51709 -4.69733,-3.33956 -0.0307,-0.0153 -0.0603,-0.0307 -0.0889,-0.046 -0.18501,-0.0889 -0.3695,-0.16967 -0.55743,-0.25042 -0.0915,-0.0409 -0.18347,-0.0823 -0.27495,-0.11908 -0.12726,-0.0542 -0.25452,-0.10324 -0.38229,-0.15077 -0.15894,-0.0629 -0.31073,-0.12113 -0.46865,-0.17734 -0.067,-0.0256 -0.13544,-0.046 -0.20136,-0.07 -0.21772,-0.0741 -0.43697,-0.14515 -0.66016,-0.21005 -0.004,-0.003 -0.0102,-0.004 -0.0153,-0.005 -1.56536,-0.4661 -3.22099,-0.71837 -4.93293,-0.71837 -0.0997,0 -0.19421,0.0102 -0.29438,0.0153 -4.34959,0.0726 -8.67991,1.7584 -11.99121,5.07113 l -22.1834,22.19745 v -45.83066 c 0,-4.50347 -3.64962,-8.15331 -8.14978,-8.15331 -4.50296,0 -8.1484,3.64963 -8.1484,8.15331 v 62.14709 l -14.22353,14.22005 11.02565,-35.39367 c 0.69715,-2.24044 0.3971,-4.67126 -0.82176,-6.67349 -1.21743,-2.00009 -3.23612,-3.37983 -5.54509,-3.7846 l -18.69164,-3.29571 c -4.433,-0.78194 -8.65917,2.17891 -9.4426,6.61053 -0.0823,0.47836 -0.1247,0.95519 -0.1247,1.42497 0,3.88452 2.78418,7.32961 6.73794,8.02866 0,0 4.78784,0.847 9.57006,1.69002 -4.15237,13.34024 -18.10969,58.11706 -18.10969,58.11706 -0.003,0.0102 -0.005,0.0256 -0.0102,0.0409 -0.0256,0.0874 -0.046,0.1753 -0.0695,0.2632 -0.0409,0.15281 -0.0792,0.30307 -0.1109,0.45946 -0.0153,0.0751 -0.0307,0.15639 -0.046,0.23509 -0.0307,0.18194 -0.0562,0.36286 -0.0767,0.54501 -0.005,0.0516 -0.0102,0.1017 -0.0204,0.15281 -0.0204,0.24583 -0.0358,0.49114 -0.0358,0.7361 0,0.2494 0.0153,0.49983 0.0409,0.74709 0.004,0.0409 0.0102,0.0808 0.0153,0.12112 0.0204,0.19983 0.0511,0.39455 0.0864,0.59228 0.0102,0.0731 0.0256,0.14515 0.046,0.21925 0.0358,0.16099 0.0751,0.32045 0.11499,0.47837 0.0256,0.0874 0.046,0.17172 0.0741,0.25758 0.046,0.15077 0.1012,0.30153 0.15997,0.44923 0.0307,0.0802 0.0562,0.16304 0.0889,0.24532 0.0838,0.20698 0.18194,0.41243 0.28364,0.61492 0.046,0.0843 0.0971,0.16866 0.14362,0.25452 0.0741,0.1293 0.14923,0.25758 0.22998,0.38535 0.0521,0.0823 0.10681,0.16456 0.15894,0.24173 0.0986,0.14157 0.19983,0.27854 0.30409,0.41551 0.046,0.0542 0.0889,0.11345 0.13441,0.16967 0.32709,0.39251 0.69036,0.75726 1.08736,1.08665 0.046,0.0358 0.093,0.0741 0.13953,0.10886 0.1477,0.11908 0.30255,0.23151 0.45996,0.33833 0.0659,0.046 0.13288,0.091 0.20137,0.13492 0.14258,0.091 0.28773,0.17376 0.43441,0.254 0.0767,0.046 0.15179,0.0899 0.22998,0.12777 0.15332,0.0792 0.3138,0.15077 0.47377,0.2213 0.14514,0.0629 0.28875,0.12112 0.43441,0.17325 0.13032,0.046 0.26013,0.10017 0.39301,0.1385 0.005,0.004 0.0204,0.0102 0.0307,0.0102 0.19574,0.0572 0.39455,0.10682 0.59443,0.15281 0.0675,0.0153 0.1385,0.0358 0.20699,0.0511 0.15332,0.0307 0.30818,0.046 0.45996,0.0685 0.11653,0.0153 0.23561,0.0409 0.3506,0.0511 h 0.0153 c 0.75465,0.0721 1.50368,0.0358 2.22956,-0.0981 0.0307,-0.0102 0.0669,-0.0102 0.0961,-0.0153 0.12317,-0.0256 0.24225,-0.0583 0.36184,-0.0899 0.1385,-0.0307 0.27956,-0.0608 0.41755,-0.10272 0.005,-0.003 0.0153,-0.005 0.0256,-0.0102 0.85052,-0.25963 1.6639,-0.66419 2.41032,-1.20588 0.11755,-0.0843 0.23407,-0.16508 0.34651,-0.254 0.0618,-0.0511 0.11652,-0.10733 0.17785,-0.15793 0.14821,-0.12725 0.29591,-0.25758 0.4385,-0.39454 0.0102,-0.0102 0.0204,-0.0153 0.0256,-0.0256 l 26.07854,-26.07854 v 28.33631 c 0,4.50159 3.64559,8.14978 8.1484,8.14978 4.50016,0 8.14979,-3.6484 8.14979,-8.14978 v -44.61415 l 33.70907,-33.73887 c 0.21209,-0.21005 0.48756,-0.3138 0.76288,-0.31175 0.0695,0.001 0.14105,0.005 0.20545,0.0204 0.0204,0.005 0.046,0.0153 0.0644,0.0204 0.046,0.0102 0.0915,0.0256 0.1385,0.046 0.0153,0.005 0.0307,0.0204 0.0511,0.0255 0.046,0.0204 0.093,0.046 0.13441,0.0721 0.004,0.004 0.0102,0.0102 0.0102,0.0102 0.27803,0.19318 0.45997,0.51153 0.45997,0.87649 v 73.91981 c 0,2.98355 1.63375,5.72862 4.25632,7.15697 2.62119,1.42707 5.81065,1.30784 8.31823,-0.31175 l 17.71523,-11.44687 c 3.78108,-2.4415 4.86706,-7.48666 2.42259,-11.27004"
       inkscape:connector-curvature="0"
       style="fill:#ffffff;stroke:none;stroke-width:0.26458284" />
  </g>
</svg>
