<?xml version="1.0" encoding="UTF-8" standalone="no"?>
<!-- Created with Inkscape (http://www.inkscape.org/) -->

<svg
   version="1.1"
   width="1005.4"
   height="1005.4"
   id="svg2"
   xml:space="preserve"
   inkscape:version="1.1 (c68e22c387, 2021-05-23)"
   sodipodi:docname="Japan_road_sign_325-2.svg"
   xmlns:inkscape="http://www.inkscape.org/namespaces/inkscape"
   xmlns:sodipodi="http://sodipodi.sourceforge.net/DTD/sodipodi-0.dtd"
   xmlns="http://www.w3.org/2000/svg"
   xmlns:svg="http://www.w3.org/2000/svg"
   xmlns:rdf="http://www.w3.org/1999/02/22-rdf-syntax-ns#"
   xmlns:cc="http://creativecommons.org/ns#"
   xmlns:dc="http://purl.org/dc/elements/1.1/"><sodipodi:namedview
     pagecolor="#ffffff"
     bordercolor="#666666"
     borderopacity="1"
     objecttolerance="10"
     gridtolerance="10"
     guidetolerance="10"
     inkscape:pageopacity="0"
     inkscape:pageshadow="2"
     inkscape:window-width="1366"
     inkscape:window-height="705"
     id="namedview28"
     showgrid="false"
     fit-margin-top="0.2"
     fit-margin-left="0.2"
     fit-margin-right="0.2"
     fit-margin-bottom="0.2"
     inkscape:zoom="0.35355339"
     inkscape:cx="649.12403"
     inkscape:cy="691.55043"
     inkscape:window-x="-8"
     inkscape:window-y="-8"
     inkscape:window-maximized="1"
     inkscape:current-layer="layer2"
     inkscape:pagecheckerboard="0" /><metadata
     id="metadata8"><rdf:RDF><cc:Work
         rdf:about=""><dc:format>image/svg+xml</dc:format><dc:type
           rdf:resource="http://purl.org/dc/dcmitype/StillImage" /></cc:Work></rdf:RDF></metadata><defs
     id="defs6"><linearGradient
       id="linearGradient15703"
       inkscape:swatch="solid"><stop
         style="stop-color:#ffffff;stop-opacity:1;"
         offset="0"
         id="stop15705" /></linearGradient></defs><path
     inkscape:connector-curvature="0"
     style="fill:#ffffff;fill-opacity:1;stroke:#0066b3;stroke-width:5;stroke-miterlimit:4;stroke-opacity:1;stroke-dasharray:none"
     d="m 2.69998,502.7 c 0,-276.1424 223.85772,-500 500.0001,-500 276.14238,0 500.00002,223.8576 500.00002,500 0,276.1423 -223.85764,500.0001 -500.00002,500.0001 C 226.5577,1002.7001 2.69998,778.8423 2.69998,502.7 z"
     id="path3854" /><path
     id="path14622"
     d="m 37.325,502.7 c 0,257.0196 208.35548,465.375 465.375,465.375 257.01958,0 465.37508,-208.3554 465.37508,-465.375 C 968.07508,245.6804 759.71958,37.325 502.7,37.325 245.68048,37.325 37.325,245.6804 37.325,502.7 z"
     style="fill:#0066b3;fill-opacity:1;stroke:none"
     inkscape:connector-curvature="0"
     sodipodi:nodetypes="sssss" /><g
     inkscape:groupmode="layer"
     id="layer2"
     inkscape:label="Bike"><path
       style="display:inline;fill:none;stroke:#ffffff;stroke-width:16.5919;stroke-linecap:butt;stroke-linejoin:miter;stroke-miterlimit:4;stroke-dasharray:none;stroke-opacity:1"
       d="m 325.94709,402.77788 187.98764,161.54759 265.16268,-0.1719 -139.99556,-196.2346 -288.06135,-0.3438"
       id="path1724"
       sodipodi:nodetypes="ccccc" /><path
       style="display:inline;fill:none;stroke:#ffffff;stroke-width:16.5919;stroke-linecap:square;stroke-linejoin:miter;stroke-miterlimit:4;stroke-dasharray:none;stroke-opacity:1"
       d="m 414.18193,277.30418 -64.50554,-10e-4 c 0,0 -20.47417,-0.73225 -29.20815,7.40672 -24.98685,23.28435 24.03587,43.18107 44.09615,49.99507 l -63.23803,123.5574 -78.80433,105.07238"
       id="path4950"
       sodipodi:nodetypes="ccsccc" /><path
       id="rect6845"
       style="display:inline;fill:#ffffff;fill-opacity:1;stroke-width:17.5248;stroke-linecap:round"
       d="m 519.49754,645.54412 h 37.2132 v 13.62048 h -37.2132 z" /><path
       id="rect6971"
       style="display:inline;fill:#ffffff;fill-opacity:1;stroke-width:16.7846;stroke-linecap:round"
       d="m 480.87491,472.85563 h 34.13511 v 13.62048 h -34.13511 z" /><path
       style="display:inline;fill:none;stroke:#ffffff;stroke-width:16.5919;stroke-linecap:butt;stroke-linejoin:miter;stroke-miterlimit:4;stroke-dasharray:none;stroke-opacity:1"
       d="M 539.19861,650.89495 497.85072,482.0981"
       id="path7006"
       sodipodi:nodetypes="cc" /><path
       style="display:inline;fill:none;stroke:#ffffff;stroke-width:16.5919;stroke-linecap:butt;stroke-linejoin:miter;stroke-miterlimit:4;stroke-dasharray:none;stroke-opacity:1"
       d="M 516.94995,570.61844 663.90663,333.05476"
       id="path7283"
       sodipodi:nodetypes="cc" /><path
       style="display:inline;fill:#ffffff;fill-opacity:1;stroke:none;stroke-width:9.49738px;stroke-linecap:butt;stroke-linejoin:miter;stroke-opacity:1"
       d="m 699.23945,343.9473 -91.93835,-0.48627 c -2.77618,-5.43078 0.36566,-9.69672 6.83792,-13.00276 l 78.29024,-9.37372 c 8.75602,1.94573 15.0655,17.0155 6.81019,22.86294 z"
       id="path8048"
       sodipodi:nodetypes="ccccc" /><path
       id="path1039"
       style="fill:none;stroke:#ffffff;stroke-width:16.5919;stroke-opacity:1"
       d="M 913.21895,563.82116 A 133.22918,132.74273 0 0 1 779.98969,696.56386 133.22918,132.74273 0 0 1 646.76053,563.82116 133.22918,132.74273 0 0 1 779.98969,431.07845 133.22918,132.74273 0 0 1 913.21895,563.82116 Z" /><path
       id="ellipse1649"
       style="fill:#ffffff;fill-opacity:1;stroke-width:2.12073"
       d="m 797.0204,563.82116 a 17.030684,16.968502 0 0 1 -17.03071,16.9685 17.030684,16.968502 0 0 1 -17.0306,-16.9685 17.030684,16.968502 0 0 1 17.0306,-16.96849 17.030684,16.968502 0 0 1 17.03071,16.96849 z" /><path
       id="ellipse1687"
       style="fill:none;stroke:#ffffff;stroke-width:16.5903;stroke-opacity:1"
       d="M 353.23857,563.82116 A 133.22918,132.74273 0 0 1 220.00941,696.56386 133.22918,132.74273 0 0 1 86.780253,563.82116 133.22918,132.74273 0 0 1 220.00941,431.07845 133.22918,132.74273 0 0 1 353.23857,563.82116 Z" /><path
       id="ellipse1689"
       style="fill:#ffffff;fill-opacity:1;stroke-width:2.12073"
       d="m 237.04011,563.82116 a 17.030684,16.968502 0 0 1 -17.0307,16.9685 17.030684,16.968502 0 0 1 -17.0307,-16.9685 17.030684,16.968502 0 0 1 17.0307,-16.96849 17.030684,16.968502 0 0 1 17.0307,16.96849 z" /><path
       id="ellipse6597"
       style="fill:none;stroke:#ffffff;stroke-width:16.5919;stroke-opacity:1"
       d="m 580.32559,565.76081 a 64.345416,64.110477 0 0 1 -64.34541,64.11046 64.345416,64.110477 0 0 1 -64.34542,-64.11046 64.345416,64.110477 0 0 1 64.34542,-64.11045 64.345416,64.110477 0 0 1 64.34541,64.11045 z" /><path
       id="ellipse6599"
       style="fill:#ffffff;fill-opacity:1;stroke-width:2.12073"
       d="m 531.38492,563.82116 a 17.030684,16.968502 0 0 1 -17.0307,16.9685 17.030684,16.968502 0 0 1 -17.03069,-16.9685 17.030684,16.968502 0 0 1 17.03069,-16.96849 17.030684,16.968502 0 0 1 17.0307,16.96849 z" /></g></svg>
