<?xml version="1.0" encoding="UTF-8" standalone="no"?>
<!-- Created with Inkscape (http://www.inkscape.org/) -->

<svg
   xmlns:svg="http://www.w3.org/2000/svg"
   xmlns="http://www.w3.org/2000/svg"
   version="1.0"
   width="450"
   height="450"
   id="svg1890">
  <defs
     id="defs1893" />
  <rect
     width="447.5"
     height="447.5"
     rx="33.316483"
     x="1.25"
     y="1.25"
     id="rect2385"
     style="fill:#ffffff;fill-opacity:1;fill-rule:evenodd;stroke:#0066b3;stroke-width:2.5;stroke-linecap:butt;stroke-linejoin:round;stroke-miterlimit:4;stroke-opacity:1;stroke-dasharray:none;stroke-dashoffset:0;marker:none;visibility:visible;display:inline;overflow:visible;enable-background:accumulate" />
  <rect
     width="415"
     height="415"
     rx="22.503939"
     ry="22.503939"
     x="16.978363"
     y="17.24411"
     id="rect3157"
     style="fill:#0066b3;fill-opacity:1;fill-rule:evenodd;stroke:none;stroke-width:1.25;marker:none;visibility:visible;display:inline;overflow:visible;enable-background:accumulate" />
  <path
     d="m 51.48305,420.44492 0,-392.89539"
     id="path2822-7-4"
     style="fill:none;stroke:#ffffff;stroke-width:30;stroke-linecap:butt;stroke-linejoin:miter;stroke-miterlimit:4;stroke-opacity:1;stroke-dasharray:none" />
  <path
     d="m 231.48305,420.44492 0,-392.89539"
     id="path2822-7"
     style="fill:none;stroke:#ffffff;stroke-width:30;stroke-linecap:butt;stroke-linejoin:miter;stroke-miterlimit:4;stroke-opacity:1;stroke-dasharray:none" />
  <rect
     width="22.5"
     height="56.25"
     x="396.60782"
     y="27.625799"
     id="rect3598-6"
     style="color:#000000;fill:#ffffff;fill-opacity:1;fill-rule:evenodd;stroke:none;stroke-width:30;marker:none;visibility:visible;display:inline;overflow:visible;enable-background:accumulate" />
  <rect
     width="22.5"
     height="56.25"
     x="396.60782"
     y="139.62579"
     id="rect3598-6-3"
     style="color:#000000;fill:#ffffff;fill-opacity:1;fill-rule:evenodd;stroke:none;stroke-width:30;marker:none;visibility:visible;display:inline;overflow:visible;enable-background:accumulate" />
  <rect
     width="22.5"
     height="56.25"
     x="396.60782"
     y="251.62579"
     id="rect3598-6-3-7"
     style="color:#000000;fill:#ffffff;fill-opacity:1;fill-rule:evenodd;stroke:none;stroke-width:30;marker:none;visibility:visible;display:inline;overflow:visible;enable-background:accumulate" />
  <rect
     width="22.5"
     height="56.25"
     x="396.60782"
     y="363.62579"
     id="rect3598-6-3-7-4"
     style="color:#000000;fill:#ffffff;fill-opacity:1;fill-rule:evenodd;stroke:none;stroke-width:30;marker:none;visibility:visible;display:inline;overflow:visible;enable-background:accumulate" />
  <path
     d="m 183.31665,266.01109 c -12.29475,0 -22.29532,-10.00941 -22.29532,-22.29531 0,-6.15623 2.49793,-11.73671 6.55485,-15.79362 l 1.55898,3.88862 12.76422,15.31529 c 0.75292,0.93007 2.09933,1.02752 3.01169,0.28345 0.51377,-0.44289 0.77063,-1.03638 0.77063,-1.64757 0,-0.48754 -0.15944,-0.95665 -0.48718,-1.37298 0,0 -11.93158,-14.29663 -12.35676,-14.80153 -0.0531,-0.13251 -0.76176,-1.89559 -1.78929,-4.47323 3.51659,-2.32963 7.7418,-3.69374 12.26818,-3.69374 12.29476,0 22.29531,10.00055 22.29531,22.29531 0,12.2859 -10.00055,22.29531 -22.29531,22.29531 m -42.42044,-28.41611 c -0.66434,-0.3281 -1.37298,-0.59383 -2.1259,-0.73521 0.59349,-2.59536 1.03637,-4.47323 1.10725,-4.85412 l 5.08442,0 c 0.59348,0 1.06296,-0.48683 1.06296,-1.08067 0,-0.59383 -0.46948,-1.06294 -1.06296,-1.06294 l -6.78515,0 c 0,0 -0.67318,2.9231 -1.56784,6.88258 -0.76179,0.0496 -1.48812,0.21258 -2.19676,0.46061 l -12.1353,-25.369 38.83299,0 1.73613,4.34036 -21.94984,21.41839 z m 2.3119,7.25461 c 0,3.304 -2.6928,6.00565 -6.00563,6.00565 -0.5492,0 -1.05411,-0.0709 -1.55014,-0.20408 0.23031,-1.06295 0.49603,-2.17019 0.74406,-3.28628 l 1.15154,0 -0.59349,-1.12496 0.59349,0.59384 4.9604,-4.8187 c 0.44291,0.8415 0.69977,1.80701 0.69977,2.83453 m -11.4621,2.51564 2.45363,0 c -0.18602,0.78836 -0.3543,1.57671 -0.5226,2.33848 -0.83265,-0.60234 -1.50584,-1.39068 -1.93103,-2.33848 m -34.040889,18.64586 c -12.285881,0 -22.295302,-10.00941 -22.295302,-22.29531 0,-12.29476 10.009421,-22.29531 22.295302,-22.29531 3.463439,0 6.714299,0.7972 9.646249,2.21447 l -9.460223,15.27986 c -0.01767,0 -0.05311,-0.007 -0.07088,-0.007 -2.967405,4.4e-4 -5.359048,2.43627 -5.359048,5.37709 0,2.94968 2.391643,5.36788 5.359048,5.36788 1.815853,0 3.410293,-0.91236 4.384643,-2.28533 l 17.46776,0 c -1.74501,10.54974 -10.92177,18.64586 -21.967578,18.64586 m 5.102158,-23.67714 c -0.23917,-0.59383 -0.56691,-1.14267 -0.9921,-1.61214 2.38278,-3.88861 5.90822,-9.55766 9.20336,-14.86354 5.08444,3.81776 8.51245,9.72597 8.91104,16.47568 l -17.1223,0 z m 15.66961,-28.5667 12.40105,25.96248 c -0.62892,0.76178 -1.09838,1.64757 -1.42612,2.60422 l -5.20846,0 c -0.42515,-8.27327 -4.64151,-15.56331 -10.97491,-20.14284 2.14362,-3.49002 4.03033,-6.53713 5.20844,-8.42386 m 64.83976,3.37485 c -5.08441,0 -9.84997,1.42612 -13.88917,3.92405 -2.8611,-7.11289 -6.66114,-16.59082 -8.04296,-20.00998 l 3.46343,-3.21541 -2.66624,-7.99867 -14.37635,-3.27743 -0.44288,0.16866 -5.47419,2.04617 c -0.84151,0.32739 -1.24896,1.24897 -0.93006,2.07275 0.30114,0.83264 1.22237,1.24896 2.05501,0.93008 0,0 4.26066,-1.59442 5.04015,-1.8513 0.79721,0.16865 10.16887,2.30306 11.64813,2.63965 0.3543,1.02752 1.06293,3.18884 1.45268,4.33151 -0.46947,0.42518 -1.16037,1.08066 -1.71843,1.60328 -0.43402,-0.10629 -0.89464,-0.10629 -1.34639,0.0793 -1.08952,0.4429 -1.62985,1.67415 -1.18697,2.78138 l 2.48022,6.20052 -39.13417,0 -1.61213,-3.34827 0.99208,0 10.94835,-3.42801 -0.91235,-1.38183 -21.67527,0 0,3.90633 5.23501,0.90351 0.69093,0 2.37392,4.96928 -6.67886,10.78005 c -3.57859,-1.80702 -7.6178,-2.82567 -11.905018,-2.82567 -14.650958,0 -26.564805,11.91386 -26.564805,26.57368 0,14.64209 11.913847,26.56481 26.564805,26.56481 13.410858,0 24.527518,-9.9917 26.316818,-22.91537 l 5.42988,0 c 0.63777,1.93102 1.98416,3.55201 3.71146,4.57068 -0.61119,2.70165 -1.06296,4.68582 -1.14269,5.07557 l -3.95062,0 c -0.59346,0 -1.06293,0.49604 -1.06293,1.08952 0,0.59384 0.46947,1.06294 1.06293,1.06294 l 5.65136,0 c 0,0 0.61119,-2.71937 1.45269,-6.43082 0.65548,0.15944 1.31982,0.25652 2.02846,0.25652 4.48208,0 8.14925,-3.64946 8.14925,-8.1404 0,-1.59442 -0.47834,-3.10027 -1.28439,-4.36695 l 20.50602,-20.01883 1.29325,3.24199 c -5.5982,4.85412 -9.12363,12.02902 -9.12363,20.00998 0,14.6421 11.92273,26.56482 26.57367,26.56482 14.65096,0 26.57367,-11.92272 26.57367,-26.56482 0,-14.65981 -11.92271,-26.57368 -26.57367,-26.57368"
     id="path15354"
     style="fill:#ffffff;fill-opacity:1;fill-rule:nonzero;stroke:none" />
  <path
     d="m 122.36624,120.2922 -49.8671,9.52518 67.98363,-70.03808 68.91746,70.41161 -50.42742,-9.89871 -0.18677,24.84016 -36.41979,0 -10e-6,-24.84016 z"
     id="path3661"
     style="fill:#ffffff;fill-opacity:1;stroke:#ffffff;stroke-width:1.84891081;stroke-linecap:butt;stroke-linejoin:round;stroke-miterlimit:4;stroke-opacity:1;stroke-dasharray:none" />
  <g
     id="g2858"
     style="fill:#ffffff">
    <path
       d="m 82.47966,365.91614 0.781555,-1.17035 c 0.08594,-0.0873 0.09652,-0.18513 0.03174,-0.29358 -0.06481,-0.10843 -0.162011,-0.16265 -0.291595,-0.16266 l -7.865143,0 c -0.736598,10e-6 -1.375991,-0.28167 -1.918182,-0.84503 -0.542199,-0.56334 -0.813297,-1.21332 -0.813294,-1.94992 -3e-6,-0.73658 0.271095,-1.37564 0.813294,-1.91719 0.542191,-0.54152 1.181584,-0.81229 1.918182,-0.8123 l 36.659693,0 c 0.39008,1e-5 0.58514,-0.19505 0.58518,-0.58518 l 0,-1.49368 c -4e-5,-0.34778 -0.1951,-0.52168 -0.58518,-0.5217 l -27.560724,0 -2.923889,0 c -0.997123,2e-5 -1.863974,-0.36828 -2.600556,-1.10489 -0.736601,-0.73657 -1.104897,-1.60276 -1.104889,-2.59857 l 0,-14.75632 c -8e-6,-0.99575 0.368288,-1.85136 1.104889,-2.56683 0.736582,-0.71539 1.603433,-1.07311 2.600556,-1.07315 l 16.25,0 c 0.346447,4e-5 0.519685,-0.19502 0.519714,-0.58518 l 0,-1.6246 c -2.9e-5,-0.39007 -0.173267,-0.58513 -0.519714,-0.58517 l -22.42508,0 c -0.736598,4e-5 -1.375991,-0.28164 -1.918182,-0.84504 -0.542199,-0.56331 -0.813297,-1.21328 -0.813294,-1.94992 -3e-6,-0.73654 0.271095,-1.3756 0.813294,-1.91719 0.542191,-0.54148 1.181584,-0.81225 1.918182,-0.8123 l 22.42508,0 c 0.346447,5e-5 0.519685,-0.17319 0.519714,-0.51971 l 0,-0.77957 c -2.9e-5,-0.95342 0.357357,-1.78788 1.072159,-2.50336 0.714742,-0.71538 1.54886,-1.0731 2.50236,-1.07315 0.95344,5e-5 1.78756,0.35777 2.50237,1.07315 0.71473,0.71548 1.07212,1.54994 1.07216,2.50336 l 0,0.77957 c -4e-5,0.34652 0.19502,0.51976 0.58517,0.51971 l 22.35962,0 c 0.73653,5e-5 1.37593,0.27082 1.91818,0.8123 0.54214,0.54159 0.81323,1.18065 0.8133,1.91719 -7e-5,0.73664 -0.27116,1.38661 -0.8133,1.94992 -0.54225,0.5634 -1.18165,0.84508 -1.91818,0.84504 l -22.35962,0 c -0.39015,4e-5 -0.58521,0.1951 -0.58517,0.58517 l 0,1.6246 c -4e-5,0.39016 0.19502,0.58522 0.58517,0.58518 l 16.18454,0 c 0.99706,4e-5 1.86391,0.35776 2.60056,1.07315 0.73653,0.71547 1.10483,1.57108 1.10489,2.56683 l 0,14.75632 c -6e-5,0.99581 -0.36836,1.862 -1.10489,2.59857 -0.73665,0.73661 -1.6035,1.10491 -2.60056,1.10489 l -1.88446,0 c -0.39017,2e-5 -0.58522,0.17392 -0.58517,0.5217 l 0,1.49368 c -5e-5,0.39013 0.195,0.58519 0.58517,0.58518 l 8.05954,0 c 0.73653,1e-5 1.37593,0.27078 1.91818,0.8123 0.54214,0.54155 0.81323,1.18061 0.8133,1.91719 -7e-5,0.7366 -0.27116,1.38658 -0.8133,1.94992 -0.54225,0.56336 -1.18165,0.84504 -1.91818,0.84503 l -8.05954,0 c -0.39017,10e-6 -0.58522,0.17391 -0.58517,0.5217 l 0,6.43494 c -5e-5,1.5155 -0.0215,2.69577 -0.0645,3.5408 -0.043,0.84503 -0.20536,1.63617 -0.48699,2.37343 -0.28172,0.73725 -0.59613,1.25729 -0.94322,1.56013 -0.34718,0.30283 -0.95385,0.5736 -1.81999,0.8123 -0.86624,0.2387 -1.76516,0.37953 -2.69676,0.42252 -0.9317,0.043 -2.24255,0.0645 -3.93257,0.0645 -1.64647,-1e-5 -4.46324,-0.0648 -8.45032,-0.1944 -0.82391,-0.0437 -1.528096,-0.35805 -2.112579,-0.94322 -0.584542,-0.58518 -0.898619,-1.28904 -0.94223,-2.11159 -0.04367,-0.78023 0.216188,-1.45203 0.779571,-2.01538 0.563325,-0.56336 1.235118,-0.82321 2.015378,-0.77957 3.55333,0.1296 6.08842,0.19439 7.60529,0.19439 1.94922,0 3.0865,-0.12992 3.41186,-0.38978 0.32528,-0.25986 0.48794,-1.1482 0.48798,-2.66503 l 0,-6.30401 c -4e-5,-0.34779 -0.1951,-0.52169 -0.58518,-0.5217 l -26.130518,0 c -0.08597,10e-6 -0.128953,0.0218 -0.128937,0.0655 -1.6e-5,0.0437 0.02114,0.0873 0.06348,0.13092 2.599875,1.3436 5.655343,3.09846 9.166412,5.26459 0.736566,0.47608 1.202391,1.15845 1.397476,2.04712 0.195031,0.88867 0.05419,1.7013 -0.422516,2.43789 -0.476761,0.7366 -1.159464,1.20242 -2.04811,1.39748 -0.888696,0.19506 -1.701327,0.0539 -2.437897,-0.42351 -2.297078,-1.47318 -4.788531,-2.94637 -7.474365,-4.41955 -0.867527,-0.47607 -1.431212,-1.20175 -1.691056,-2.17705 -0.25987,-0.97528 -0.129941,-1.8742 0.389786,-2.69676 z m 36.01105,-27.04102 -12.67548,0 c -0.39015,4e-5 -0.58521,0.1951 -0.58517,0.58518 l 0,2.66601 c -4e-5,0.34651 0.19502,0.51975 0.58517,0.51972 l 12.67548,0 c 0.39006,3e-5 0.58512,-0.17321 0.58517,-0.51972 l 0,-2.66601 c -5e-5,-0.39008 -0.19511,-0.58514 -0.58517,-0.58518 z m -34.255526,0.58518 0,2.66601 c -1.5e-5,0.34651 0.195043,0.51975 0.585174,0.51972 l 12.740937,0 c 0.346447,3e-5 0.519685,-0.17321 0.519714,-0.51972 l 0,-2.66601 c -2.9e-5,-0.39008 -0.173267,-0.58514 -0.519714,-0.58518 l -12.740937,0 c -0.390131,4e-5 -0.585189,0.1951 -0.585174,0.58518 z m 0.585174,11.76498 12.740937,0 c 0.346447,2e-5 0.519685,-0.17321 0.519714,-0.51971 l 0,-2.98935 c -2.9e-5,-0.34777 -0.173267,-0.52167 -0.519714,-0.5217 l -12.740937,0 c -0.390131,3e-5 -0.585189,0.17393 -0.585174,0.5217 l 0,2.98935 c -1.5e-5,0.3465 0.195043,0.51973 0.585174,0.51971 z m 20.994872,0 12.67548,0 c 0.39006,2e-5 0.58512,-0.17321 0.58517,-0.51971 l 0,-2.98935 c -5e-5,-0.34777 -0.19511,-0.52167 -0.58517,-0.5217 l -12.67548,0 c -0.39015,3e-5 -0.58521,0.17393 -0.58517,0.5217 l 0,2.98935 c -4e-5,0.3465 0.19502,0.51973 0.58517,0.51971 z"
       id="path2852"
       style="font-size:65px;font-style:normal;font-weight:normal;text-align:center;text-anchor:middle;fill:#ffffff;fill-opacity:1;stroke:none;font-family:'Rounded M+ 1m medium';-inkscape-font-specification:'Rounded M+ 1m medium'" />
    <path
       d="m 165.04079,361.1058 c -0.73661,6.28287 -2.51329,11.76433 -5.33005,16.4444 -0.51972,0.82387 -1.25632,1.31152 -2.20978,1.46294 -0.95348,0.15141 -1.82033,-0.0761 -2.60055,-0.68238 -0.78024,-0.60633 -1.25698,-1.41896 -1.43021,-2.43789 -0.17324,-1.01893 -0.0212,-1.96149 0.45624,-2.82768 1.77601,-3.11961 3.03232,-6.61875 3.76892,-10.49744 0.73658,-3.87867 1.10488,-9.00307 1.10489,-15.37323 l 0,-20.34424 c -1e-5,-0.99706 0.35737,-1.86391 1.07216,-2.60055 0.71476,-0.73655 1.5707,-1.10484 2.56782,-1.10489 l 43.1601,0 c 0.99705,5e-5 1.8639,0.36834 2.60055,1.10489 0.73654,0.73664 1.10483,1.60349 1.10489,2.60055 l 0,43.74527 c -6e-5,4.28996 -0.4877,6.93316 -1.46294,7.92961 -0.97534,0.99645 -3.52135,1.49467 -7.63801,1.49468 -1.21272,-10e-6 -3.20561,-0.0648 -5.9787,-0.1944 -0.82392,-0.0437 -1.50662,-0.34714 -2.04811,-0.91049 -0.54158,-0.56336 -0.83416,-1.25631 -0.87776,-2.07886 -0.0437,-0.73659 0.20559,-1.37599 0.74783,-1.91818 0.54215,-0.5422 1.18155,-0.79148 1.91818,-0.74784 2.51257,0.1296 4.22379,0.1944 5.13367,0.1944 1.60405,0 2.56843,-0.16233 2.89314,-0.48698 0.32461,-0.32466 0.48693,-1.3102 0.48699,-2.95662 l 0,-9.81507 c -6e-5,-0.3901 -0.19511,-0.58516 -0.58518,-0.58517 l -14.81979,0 c -0.34651,1e-5 -0.51975,0.19507 -0.51972,0.58517 l 0,14.30008 c -3e-5,0.90983 -0.32502,1.68973 -0.97496,2.33971 -0.65,0.64997 -1.42991,0.97496 -2.3397,0.97496 -0.90987,0 -1.68977,-0.32499 -2.33971,-0.97496 -0.65,-0.64998 -0.97499,-1.42988 -0.97496,-2.33971 l 0,-14.30008 c -3e-5,-0.3901 -0.19509,-0.58516 -0.58517,-0.58517 l -13.71491,0 c -0.30417,1e-5 -0.49923,0.19507 -0.58517,0.58517 z m 37.43927,-6.50039 0,-9.74961 c -6e-5,-0.39008 -0.19511,-0.58514 -0.58518,-0.58517 l -14.81979,0 c -0.34651,3e-5 -0.51975,0.19509 -0.51972,0.58517 l 0,9.74961 c -3e-5,0.34649 0.17321,0.51973 0.51972,0.51971 l 14.81979,0 c 0.39007,2e-5 0.58512,-0.17322 0.58518,-0.51971 z m -0.58518,-25.73975 -14.81979,0 c -0.34651,5e-5 -0.51975,0.17329 -0.51972,0.51972 l 0,8.97003 c -3e-5,0.34651 0.17321,0.51975 0.51972,0.51971 l 14.81979,0 c 0.39007,4e-5 0.58512,-0.1732 0.58518,-0.51971 l 0,-8.97003 c -6e-5,-0.34643 -0.19511,-0.51967 -0.58518,-0.51972 z m -36.26892,0.51972 0,8.97003 c -1e-5,0.34651 0.17322,0.51975 0.51972,0.51971 l 13.19519,0 c 0.39008,4e-5 0.58514,-0.1732 0.58517,-0.51971 l 0,-8.97003 c -3e-5,-0.34643 -0.19509,-0.51967 -0.58517,-0.51972 l -13.19519,0 c -0.3465,5e-5 -0.51973,0.17329 -0.51972,0.51972 z m 0,15.47042 0,5.07019 c -1e-5,1.12674 -0.0436,2.68654 -0.13092,4.67942 -10e-6,0.34649 0.17322,0.51973 0.51972,0.51971 l 13.32611,0 c 0.39008,2e-5 0.58514,-0.17322 0.58517,-0.51971 l 0,-9.74961 c -3e-5,-0.39008 -0.19509,-0.58514 -0.58517,-0.58517 l -13.19519,0 c -0.3465,3e-5 -0.51973,0.19509 -0.51972,0.58517 z"
       id="path2854"
       style="font-size:65px;font-style:normal;font-weight:normal;text-align:center;text-anchor:middle;fill:#ffffff;fill-opacity:1;stroke:none;font-family:'Rounded M+ 1m medium';-inkscape-font-specification:'Rounded M+ 1m medium'" />
  </g>
</svg>
