<?xml version="1.0" encoding="UTF-8" standalone="no"?>
<!-- Created with Inkscape (http://www.inkscape.org/) -->

<svg
   xmlns:dc="http://purl.org/dc/elements/1.1/"
   xmlns:cc="http://creativecommons.org/ns#"
   xmlns:rdf="http://www.w3.org/1999/02/22-rdf-syntax-ns#"
   xmlns:svg="http://www.w3.org/2000/svg"
   xmlns="http://www.w3.org/2000/svg"
   xmlns:sodipodi="http://sodipodi.sourceforge.net/DTD/sodipodi-0.dtd"
   xmlns:inkscape="http://www.inkscape.org/namespaces/inkscape"
   width="60.900002cm"
   height="60.900002cm"
   viewBox="0 0 609.00002 609"
   version="1.1"
   id="svg832"
   inkscape:version="0.92.2 (5c3e80d, 2017-08-06)"
   sodipodi:docname="99.svg">
  <defs
     id="defs826" />
  <sodipodi:namedview
     id="base"
     pagecolor="#ffffff"
     bordercolor="#666666"
     borderopacity="1.0"
     inkscape:pageopacity="0.0"
     inkscape:pageshadow="2"
     inkscape:zoom="0.24748737"
     inkscape:cx="1276.7037"
     inkscape:cy="884.16905"
     inkscape:document-units="cm"
     inkscape:current-layer="layer1"
     showgrid="false"
     units="cm"
     inkscape:snap-global="false"
     inkscape:window-width="1920"
     inkscape:window-height="1057"
     inkscape:window-x="-8"
     inkscape:window-y="-8"
     inkscape:window-maximized="1" />
  <metadata
     id="metadata829">
    <rdf:RDF>
      <cc:Work
         rdf:about="">
        <dc:format>image/svg+xml</dc:format>
        <dc:type
           rdf:resource="http://purl.org/dc/dcmitype/StillImage" />
        <dc:title></dc:title>
      </cc:Work>
    </rdf:RDF>
  </metadata>
  <g
     inkscape:label="Layer 1"
     inkscape:groupmode="layer"
     id="layer1"
     transform="translate(0,311.99999)">
    <rect
       style="opacity:1;fill:#000000;fill-opacity:1;fill-rule:nonzero;stroke:none;stroke-width:20;stroke-linecap:butt;stroke-linejoin:round;stroke-miterlimit:4;stroke-dasharray:none;stroke-opacity:1;paint-order:fill markers stroke"
       id="rect1387"
       width="605"
       height="605"
       x="1.9999999"
       y="-310"
       rx="37.5"
       ry="37.5" />
    <rect
       ry="35"
       rx="35"
       y="-307.5"
       x="4.5"
       height="600"
       width="600"
       id="rect1414"
       style="opacity:1;fill:#ffffff;fill-opacity:1;fill-rule:nonzero;stroke:none;stroke-width:20;stroke-linecap:butt;stroke-linejoin:round;stroke-miterlimit:4;stroke-dasharray:none;stroke-opacity:1;paint-order:fill markers stroke" />
    <rect
       ry="21.999998"
       rx="21.999998"
       style="opacity:1;fill:#be121e;fill-opacity:1;fill-rule:nonzero;stroke:none;stroke-width:20;stroke-linecap:butt;stroke-linejoin:round;stroke-miterlimit:4;stroke-dasharray:none;stroke-opacity:1;paint-order:fill markers stroke"
       id="rect1416"
       width="574"
       height="574"
       x="17.5"
       y="-294.5" />
    <rect
       y="-214.5"
       x="97.499977"
       height="413.99997"
       width="413.99997"
       id="rect834"
       style="opacity:1;fill:#ffffff;fill-opacity:1;fill-rule:nonzero;stroke:none;stroke-width:20;stroke-linecap:butt;stroke-linejoin:round;stroke-miterlimit:4;stroke-dasharray:none;stroke-opacity:1;paint-order:fill markers stroke" />
    <rect
       style="opacity:1;fill:#be121e;fill-opacity:1;fill-rule:nonzero;stroke:none;stroke-width:0.04;stroke-linecap:butt;stroke-linejoin:round;stroke-miterlimit:4;stroke-dasharray:none;stroke-opacity:1;paint-order:fill markers stroke"
       id="rect847"
       width="39.880844"
       height="257"
       x="200.61662"
       y="-139.98926"
       transform="rotate(-45)" />
    <path
       style="opacity:1;fill:#be121e;fill-opacity:1;fill-rule:nonzero;stroke:none;stroke-width:0.04;stroke-linecap:butt;stroke-linejoin:round;stroke-miterlimit:4;stroke-dasharray:none;stroke-opacity:1;paint-order:fill markers stroke"
       d="m 362.69488,78.980111 -5.90016,-62.407341 209.3036,209.30361 -28.25359,28.25359 z"
       id="rect873"
       inkscape:connector-curvature="0"
       sodipodi:nodetypes="ccccc" />
    <path
       inkscape:connector-curvature="0"
       style="fill:none;fill-opacity:1;fill-rule:nonzero;stroke:#ffffff;stroke-width:20;stroke-miterlimit:4;stroke-dasharray:none;stroke-opacity:1"
       d="M 390.93758,78.826283 345.71781,-32.219293 c -0.5635,-1.87708 0.87727,-12.08782 1.12721,-16.1592 0.18177,-4.07231 -4.07237,-38.70593 -3.88139,-40.3344 0.18177,-1.69074 0.87716,-1.3135 3.13146,-0.74992 2.2543,0.56358 10.20845,8.26777 12.40051,13.84173 2.25431,5.57441 5.76257,40.39755 7.39053,41.83787 2.7543,4.07228 5.57447,3.57234 9.33228,1.75435 1.62707,-0.3636 6.0125,-12.46414 7.20282,-17.28636 1.06359,-4.75995 -5.57436,-38.33051 -7.95413,-43.34089 -2.50425,-5.01084 -33.25741,-40.585287 -36.13844,-42.213757 -3.00424,-1.69072 -13.34041,-7.95416 -15.03161,-9.64534 -1.62709,-1.6271 -1.06358,-16.09649 10e-6,-18.91483 0.45443,-0.94079 0.56349,-2.13159 0.62722,-3.25873 6.07523,-1.31352 9.95849,-3.19514 9.95849,-5.38628 0,-2.00432 -3.13157,-3.82231 -8.20466,-5.1358 -1.75432,-3.57236 -4.57223,-9.5199 -6.07523,-10.83523 -2.00437,-1.69073 -23.92524,-3.88141 -26.30541,-3.38145 -2.38155,0.62719 -3.13149,7.26513 -3.13149,7.26513 l -4.75995,7.14016 c -4.75997,1.3135 -7.64102,3.00422 -7.64102,4.94766 -1e-5,2.00433 3.50871,3.8814 9.08132,5.26126 0.13634,0.69084 0.18179,1.3135 0.31814,1.75436 0.45449,1.6271 1.87708,14.96888 3.88136,18.35125 2.00437,3.31784 6.32577,2.75426 7.82927,4.00867 1.50437,1.3135 0.5635,-0.56357 0.5635,3.19511 0,3.69508 -4.3222,5.5117 -6.70158,7.39059 -2.38153,1.87707 -1.50438,2.19069 -4.82263,9.83306 -3.31783,7.64101 -5.6994,19.66657 -6.70157,26.117717 -0.87717,6.45068 -1.06353,6.88928 -5.69939,12.27552 -4.57179,5.32354 -23.92521,19.97926 -28.37202,23.29891 -4.38589,3.31784 -7.39058,3.50872 -8.7059,5.5117 -1.31349,2.06796 -0.74991,5.94982 0,8.58046 0.75446,2.56791 6.51386,3.88141 9.45764,3.88141 3.00424,-1e-5 4.44499,-3.19512 7.45286,-3.69507 2.94514,-0.56358 3.50872,-0.36359 7.57873,0.3636 4.07231,0.74992 28.30928,-18.91483 30.56408,-17.84995 2.19068,1.19079 4.82267,26.68084 3.69508,28.7479 -1.06358,2.00433 -9.77036,11.27335 -13.90402,17.22319 -4.0723,5.950269 -8.70591,17.97537943 -11.64968,24.8023797 L 251.71365,70.986654 c -0.27269,2.754258 -3.63142,4.634979 -5.44898,5.323969 -1.87707,0.690844 -3.75871,1.249875 -5.0731,1.75436 -1.3135,0.563589 -4.19501,0.999909 -4.63495,3.131496 -0.36361,2.190678 1.0635,4.258626 3.13147,4.634496 l 35.32446,6.638848 c 2.12704,0.4545 4.25864,-1.004438 4.6345,-3.131493 l 17.53682,-59.374646 c 3.1951,-8.330022 17.28631,-29.81275757 18.53899,-31.6916576 1.50438,-2.00433 5.76207,-2.19068 6.57648,-10e-6 0.81354,2.31794003 35.13632,80.8574036 35.13632,80.8574036 1.31352,2.504275 -0.36355,5.949815 -1.56801,7.452834 -1.1271,1.568024 -2.31793,3.131493 -3.13147,4.322275 -0.81354,1.190782 -2.94515,3.195126 -2.1316,5.19855 0.94078,2.00433 3.19509,2.94516 5.19807,2.06798 l 33.00697,-14.154422 c 2.06799,-0.877187 3.00423,-3.195118 2.1316,-5.19855"
       id="path876" />
    <path
       id="path878"
       d="M 390.93758,78.826283 345.71781,-32.219293 c -0.5635,-1.87708 0.87727,-12.08782 1.12721,-16.1592 0.18177,-4.07231 -4.07237,-38.70593 -3.88139,-40.3344 0.18177,-1.69074 0.87716,-1.3135 3.13146,-0.74992 2.2543,0.56358 10.20845,8.26777 12.40051,13.84173 2.25431,5.57441 5.76257,40.39755 7.39053,41.83787 2.7543,4.07228 5.57447,3.57234 9.33228,1.75435 1.62707,-0.3636 6.0125,-12.46414 7.20282,-17.28636 1.06359,-4.75995 -5.57436,-38.33051 -7.95413,-43.34089 -2.50425,-5.01084 -33.25741,-40.585287 -36.13844,-42.213757 -3.00424,-1.69072 -13.34041,-7.95416 -15.03161,-9.64534 -1.62709,-1.6271 -1.06358,-16.09649 10e-6,-18.91483 0.45443,-0.94079 0.56349,-2.13159 0.62722,-3.25873 6.07523,-1.31352 9.95849,-3.19514 9.95849,-5.38628 0,-2.00432 -3.13157,-3.82231 -8.20466,-5.1358 -1.75432,-3.57236 -4.57223,-9.5199 -6.07523,-10.83523 -2.00437,-1.69073 -23.92524,-3.88141 -26.30541,-3.38145 -2.38155,0.62719 -3.13149,7.26513 -3.13149,7.26513 l -4.75995,7.14016 c -4.75997,1.3135 -7.64102,3.00422 -7.64102,4.94766 -1e-5,2.00433 3.50871,3.8814 9.08132,5.26126 0.13634,0.69084 0.18179,1.3135 0.31814,1.75436 0.45449,1.6271 1.87708,14.96888 3.88136,18.35125 2.00437,3.31784 6.32577,2.75426 7.82927,4.00867 1.50437,1.3135 0.5635,-0.56357 0.5635,3.19511 0,3.69508 -4.3222,5.5117 -6.70158,7.39059 -2.38153,1.87707 -1.50438,2.19069 -4.82263,9.83306 -3.31783,7.64101 -5.6994,19.66657 -6.70157,26.117717 -0.87717,6.45068 -1.06353,6.88928 -5.69939,12.27552 -4.57179,5.32354 -23.92521,19.97926 -28.37202,23.29891 -4.38589,3.31784 -7.39058,3.50872 -8.7059,5.5117 -1.31349,2.06796 -0.74991,5.94982 0,8.58046 0.75446,2.56791 6.51386,3.88141 9.45764,3.88141 3.00424,-1e-5 4.44499,-3.19512 7.45286,-3.69507 2.94514,-0.56358 3.50872,-0.36359 7.57873,0.3636 4.07231,0.74992 28.30928,-18.91483 30.56408,-17.84995 2.19068,1.19079 4.82267,26.68084 3.69508,28.7479 -1.06358,2.00433 -9.77036,11.27335 -13.90402,17.22319 -4.0723,5.950269 -8.70591,17.97537943 -11.64968,24.8023797 L 251.71365,70.986654 c -0.27269,2.754258 -3.63142,4.634979 -5.44898,5.323969 -1.87707,0.690844 -3.75871,1.249875 -5.0731,1.75436 -1.3135,0.563589 -4.19501,0.999909 -4.63495,3.131496 -0.36361,2.190678 1.0635,4.258626 3.13147,4.634496 l 35.32446,6.638848 c 2.12704,0.4545 4.25864,-1.004438 4.6345,-3.131493 l 17.53682,-59.374646 c 3.1951,-8.330022 17.28631,-29.81275757 18.53899,-31.6916576 1.50438,-2.00433 5.76207,-2.19068 6.57648,-10e-6 0.81354,2.31794003 35.13632,80.8574036 35.13632,80.8574036 1.31352,2.504275 -0.36355,5.949815 -1.56801,7.452834 -1.1271,1.568024 -2.31793,3.131493 -3.13147,4.322275 -0.81354,1.190782 -2.94515,3.195126 -2.1316,5.19855 0.94078,2.00433 3.19509,2.94516 5.19807,2.06798 l 33.00697,-14.154422 c 2.06799,-0.877187 3.00423,-3.195118 2.1316,-5.19855"
       style="fill:#0064b4;fill-opacity:1;fill-rule:nonzero;stroke:none;stroke-width:0.35277796"
       inkscape:connector-curvature="0" />
    <g
       id="g16388"
       transform="matrix(1.3540342,0,0,1.3540342,577.8255,-613.74088)"
       style="display:inline;fill:#0064b4;fill-opacity:1;stroke:none;stroke-width:0.19540372;stroke-opacity:1">
      <g
         style="fill:#0064b4;fill-opacity:1;stroke:none;stroke-width:0.19540372;stroke-opacity:1"
         transform="translate(-612.15244)"
         id="g16284">
        <path
           style="color:#000000;font-style:normal;font-variant:normal;font-weight:normal;font-stretch:normal;font-size:medium;line-height:normal;font-family:sans-serif;font-variant-ligatures:normal;font-variant-position:normal;font-variant-caps:normal;font-variant-numeric:normal;font-variant-alternates:normal;font-feature-settings:normal;text-indent:0;text-align:start;text-decoration:none;text-decoration-line:none;text-decoration-style:solid;text-decoration-color:#000000;letter-spacing:normal;word-spacing:normal;text-transform:none;writing-mode:lr-tb;direction:ltr;text-orientation:mixed;dominant-baseline:auto;baseline-shift:baseline;text-anchor:start;white-space:normal;shape-padding:0;clip-rule:nonzero;display:inline;overflow:visible;visibility:visible;opacity:1;isolation:auto;mix-blend-mode:normal;color-interpolation:sRGB;color-interpolation-filters:linearRGB;solid-color:#000000;solid-opacity:1;vector-effect:none;fill:#0064b4;fill-opacity:1;fill-rule:nonzero;stroke:none;stroke-width:1.17242241;stroke-linecap:round;stroke-linejoin:miter;stroke-miterlimit:4;stroke-dasharray:none;stroke-dashoffset:0;stroke-opacity:1;color-rendering:auto;image-rendering:auto;shape-rendering:auto;text-rendering:auto;enable-background:accumulate"
           d="m 422.45898,535.61523 a 3.0003,3.0003 0 0 0 -2.95507,3.04297 v 45.61133 a 3.0003,3.0003 0 1 0 6,0 V 538.6582 a 3.0003,3.0003 0 0 0 -3.04493,-3.04297 z"
           id="path16192"
           inkscape:connector-curvature="0" />
        <path
           style="color:#000000;font-style:normal;font-variant:normal;font-weight:normal;font-stretch:normal;font-size:medium;line-height:normal;font-family:sans-serif;font-variant-ligatures:normal;font-variant-position:normal;font-variant-caps:normal;font-variant-numeric:normal;font-variant-alternates:normal;font-feature-settings:normal;text-indent:0;text-align:start;text-decoration:none;text-decoration-line:none;text-decoration-style:solid;text-decoration-color:#000000;letter-spacing:normal;word-spacing:normal;text-transform:none;writing-mode:lr-tb;direction:ltr;text-orientation:mixed;dominant-baseline:auto;baseline-shift:baseline;text-anchor:start;white-space:normal;shape-padding:0;clip-rule:nonzero;display:inline;overflow:visible;visibility:visible;opacity:1;isolation:auto;mix-blend-mode:normal;color-interpolation:sRGB;color-interpolation-filters:linearRGB;solid-color:#000000;solid-opacity:1;vector-effect:none;fill:#0064b4;fill-opacity:1;fill-rule:nonzero;stroke:none;stroke-width:1.17242241;stroke-linecap:round;stroke-linejoin:miter;stroke-miterlimit:4;stroke-dasharray:none;stroke-dashoffset:0;stroke-opacity:1;color-rendering:auto;image-rendering:auto;shape-rendering:auto;text-rendering:auto;enable-background:accumulate"
           d="m 408.51953,552.85938 a 3.0003,3.0003 0 0 0 -2.95508,3.04296 v 28.36719 a 3.0003,3.0003 0 1 0 6,0 v -28.36719 a 3.0003,3.0003 0 0 0 -3.04492,-3.04296 z"
           id="path16194"
           inkscape:connector-curvature="0" />
        <path
           style="color:#000000;font-style:normal;font-variant:normal;font-weight:normal;font-stretch:normal;font-size:medium;line-height:normal;font-family:sans-serif;font-variant-ligatures:normal;font-variant-position:normal;font-variant-caps:normal;font-variant-numeric:normal;font-variant-alternates:normal;font-feature-settings:normal;text-indent:0;text-align:start;text-decoration:none;text-decoration-line:none;text-decoration-style:solid;text-decoration-color:#000000;letter-spacing:normal;word-spacing:normal;text-transform:none;writing-mode:lr-tb;direction:ltr;text-orientation:mixed;dominant-baseline:auto;baseline-shift:baseline;text-anchor:start;white-space:normal;shape-padding:0;clip-rule:nonzero;display:inline;overflow:visible;visibility:visible;opacity:1;isolation:auto;mix-blend-mode:normal;color-interpolation:sRGB;color-interpolation-filters:linearRGB;solid-color:#000000;solid-opacity:1;vector-effect:none;fill:#0064b4;fill-opacity:1;fill-rule:nonzero;stroke:none;stroke-width:1.17242241;stroke-linecap:round;stroke-linejoin:miter;stroke-miterlimit:4;stroke-dasharray:none;stroke-dashoffset:0;stroke-opacity:1;color-rendering:auto;image-rendering:auto;shape-rendering:auto;text-rendering:auto;enable-background:accumulate"
           d="m 398.54883,581.26953 a 3.0003,3.0003 0 1 0 0,6 h 46.14648 a 3.0003,3.0003 0 1 0 0,-6 z"
           id="path16196"
           inkscape:connector-curvature="0" />
        <path
           style="color:#000000;font-style:normal;font-variant:normal;font-weight:normal;font-stretch:normal;font-size:medium;line-height:normal;font-family:sans-serif;font-variant-ligatures:normal;font-variant-position:normal;font-variant-caps:normal;font-variant-numeric:normal;font-variant-alternates:normal;font-feature-settings:normal;text-indent:0;text-align:start;text-decoration:none;text-decoration-line:none;text-decoration-style:solid;text-decoration-color:#000000;letter-spacing:normal;word-spacing:normal;text-transform:none;writing-mode:lr-tb;direction:ltr;text-orientation:mixed;dominant-baseline:auto;baseline-shift:baseline;text-anchor:start;white-space:normal;shape-padding:0;clip-rule:nonzero;display:inline;overflow:visible;visibility:visible;opacity:1;isolation:auto;mix-blend-mode:normal;color-interpolation:sRGB;color-interpolation-filters:linearRGB;solid-color:#000000;solid-opacity:1;vector-effect:none;fill:#0064b4;fill-opacity:1;fill-rule:nonzero;stroke:none;stroke-width:1.17242241;stroke-linecap:round;stroke-linejoin:round;stroke-miterlimit:4;stroke-dasharray:none;stroke-dashoffset:0;stroke-opacity:1;color-rendering:auto;image-rendering:auto;shape-rendering:auto;text-rendering:auto;enable-background:accumulate"
           d="m 435.94336,550.8125 a 3.0003,3.0003 0 0 0 -1.63281,0.41797 l -13.29883,7.63086 a 3.0003,3.0003 0 1 0 2.98437,5.20312 l 13.30079,-7.6289 a 3.0003,3.0003 0 0 0 -1.35352,-5.62305 z"
           id="path16198"
           inkscape:connector-curvature="0" />
      </g>
      <path
         style="color:#000000;font-style:normal;font-variant:normal;font-weight:normal;font-stretch:normal;font-size:medium;line-height:normal;font-family:sans-serif;font-variant-ligatures:normal;font-variant-position:normal;font-variant-caps:normal;font-variant-numeric:normal;font-variant-alternates:normal;font-feature-settings:normal;text-indent:0;text-align:start;text-decoration:none;text-decoration-line:none;text-decoration-style:solid;text-decoration-color:#000000;letter-spacing:normal;word-spacing:normal;text-transform:none;writing-mode:lr-tb;direction:ltr;text-orientation:mixed;dominant-baseline:auto;baseline-shift:baseline;text-anchor:start;white-space:normal;shape-padding:0;clip-rule:nonzero;display:inline;overflow:visible;visibility:visible;opacity:1;isolation:auto;mix-blend-mode:normal;color-interpolation:sRGB;color-interpolation-filters:linearRGB;solid-color:#000000;solid-opacity:1;vector-effect:none;fill:#0064b4;fill-opacity:1;fill-rule:nonzero;stroke:none;stroke-width:1.17242241;stroke-linecap:round;stroke-linejoin:miter;stroke-miterlimit:4;stroke-dasharray:none;stroke-dashoffset:0;stroke-opacity:1;color-rendering:auto;image-rendering:auto;shape-rendering:auto;text-rendering:auto;enable-background:accumulate"
         d="m -323.4375,537.5332 a 3.0003,3.0003 0 0 0 -2.95508,3.04297 v 3.57227 a 3.0003,3.0003 0 1 0 6,0 v -3.57227 a 3.0003,3.0003 0 0 0 -3.04492,-3.04297 z"
         id="path16305"
         inkscape:connector-curvature="0" />
      <path
         style="color:#000000;font-style:normal;font-variant:normal;font-weight:normal;font-stretch:normal;font-size:medium;line-height:normal;font-family:sans-serif;font-variant-ligatures:normal;font-variant-position:normal;font-variant-caps:normal;font-variant-numeric:normal;font-variant-alternates:normal;font-feature-settings:normal;text-indent:0;text-align:start;text-decoration:none;text-decoration-line:none;text-decoration-style:solid;text-decoration-color:#000000;letter-spacing:normal;word-spacing:normal;text-transform:none;writing-mode:lr-tb;direction:ltr;text-orientation:mixed;dominant-baseline:auto;baseline-shift:baseline;text-anchor:start;white-space:normal;shape-padding:0;clip-rule:nonzero;display:inline;overflow:visible;visibility:visible;opacity:1;isolation:auto;mix-blend-mode:normal;color-interpolation:sRGB;color-interpolation-filters:linearRGB;solid-color:#000000;solid-opacity:1;vector-effect:none;fill:#0064b4;fill-opacity:1;fill-rule:nonzero;stroke:none;stroke-width:1.17242241;stroke-linecap:round;stroke-linejoin:round;stroke-miterlimit:4;stroke-dasharray:none;stroke-dashoffset:0;stroke-opacity:1;color-rendering:auto;image-rendering:auto;shape-rendering:auto;text-rendering:auto;enable-background:accumulate"
         d="m -327.32227,551.68359 a 3.0003,3.0003 0 1 0 0,6 h 2.53711 v 19.15039 l -4.12109,4.1211 a 3.0003,3.0003 0 1 0 4.24219,4.24219 l 5,-5 a 3.0003,3.0003 0 0 0 0.8789,-2.1211 v -23.39258 a 3.0003,3.0003 0 0 0 -3,-3 z"
         id="path16307"
         inkscape:connector-curvature="0" />
      <path
         style="color:#000000;font-style:normal;font-variant:normal;font-weight:normal;font-stretch:normal;font-size:medium;line-height:normal;font-family:sans-serif;font-variant-ligatures:normal;font-variant-position:normal;font-variant-caps:normal;font-variant-numeric:normal;font-variant-alternates:normal;font-feature-settings:normal;text-indent:0;text-align:start;text-decoration:none;text-decoration-line:none;text-decoration-style:solid;text-decoration-color:#000000;letter-spacing:normal;word-spacing:normal;text-transform:none;writing-mode:lr-tb;direction:ltr;text-orientation:mixed;dominant-baseline:auto;baseline-shift:baseline;text-anchor:start;white-space:normal;shape-padding:0;clip-rule:nonzero;display:inline;overflow:visible;visibility:visible;opacity:1;isolation:auto;mix-blend-mode:normal;color-interpolation:sRGB;color-interpolation-filters:linearRGB;solid-color:#000000;solid-opacity:1;vector-effect:none;fill:#0064b4;fill-opacity:1;fill-rule:nonzero;stroke:none;stroke-width:1.17242241;stroke-linecap:round;stroke-linejoin:round;stroke-miterlimit:4;stroke-dasharray:none;stroke-dashoffset:0;stroke-opacity:1;color-rendering:auto;image-rendering:auto;shape-rendering:auto;text-rendering:auto;enable-background:accumulate"
         d="m -321.83008,575.0332 a 3.0003,3.0003 0 0 0 -2.95508,3.04297 c 0,2.63136 1.41016,4.10519 2.84571,5.44141 1.43554,1.33622 3.02684,2.55859 5.51172,2.55859 h 34.10546 a 3.0003,3.0003 0 1 0 0,-6 h -34.10546 c 0.38105,0 -0.70676,-0.28371 -1.42383,-0.95117 -0.71707,-0.66746 -0.9336,-1.69488 -0.9336,-1.04883 a 3.0003,3.0003 0 0 0 -3.04492,-3.04297 z"
         id="path16311"
         inkscape:connector-curvature="0" />
      <path
         style="color:#000000;font-style:normal;font-variant:normal;font-weight:normal;font-stretch:normal;font-size:medium;line-height:normal;font-family:sans-serif;font-variant-ligatures:normal;font-variant-position:normal;font-variant-caps:normal;font-variant-numeric:normal;font-variant-alternates:normal;font-feature-settings:normal;text-indent:0;text-align:start;text-decoration:none;text-decoration-line:none;text-decoration-style:solid;text-decoration-color:#000000;letter-spacing:normal;word-spacing:normal;text-transform:none;writing-mode:lr-tb;direction:ltr;text-orientation:mixed;dominant-baseline:auto;baseline-shift:baseline;text-anchor:start;white-space:normal;shape-padding:0;clip-rule:nonzero;display:inline;overflow:visible;visibility:visible;opacity:1;isolation:auto;mix-blend-mode:normal;color-interpolation:sRGB;color-interpolation-filters:linearRGB;solid-color:#000000;solid-opacity:1;vector-effect:none;fill:#0064b4;fill-opacity:1;fill-rule:nonzero;stroke:none;stroke-width:1.17242241;stroke-linecap:round;stroke-linejoin:round;stroke-miterlimit:4;stroke-dasharray:none;stroke-dashoffset:0;stroke-opacity:1;color-rendering:auto;image-rendering:auto;shape-rendering:auto;text-rendering:auto;enable-background:accumulate"
         d="m -310.68555,550.34766 a 3.0003,3.0003 0 0 0 -3,3 v 21.59179 a 3.0003,3.0003 0 1 0 6,0 v -18.59179 h 19.94922 v 18.59179 a 3.0003,3.0003 0 1 0 6,0 v -21.59179 a 3.0003,3.0003 0 0 0 -3,-3 z"
         id="path16323"
         inkscape:connector-curvature="0" />
      <path
         style="color:#000000;font-style:normal;font-variant:normal;font-weight:normal;font-stretch:normal;font-size:medium;line-height:normal;font-family:sans-serif;font-variant-ligatures:normal;font-variant-position:normal;font-variant-caps:normal;font-variant-numeric:normal;font-variant-alternates:normal;font-feature-settings:normal;text-indent:0;text-align:start;text-decoration:none;text-decoration-line:none;text-decoration-style:solid;text-decoration-color:#000000;letter-spacing:normal;word-spacing:normal;text-transform:none;writing-mode:lr-tb;direction:ltr;text-orientation:mixed;dominant-baseline:auto;baseline-shift:baseline;text-anchor:start;white-space:normal;shape-padding:0;clip-rule:nonzero;display:inline;overflow:visible;visibility:visible;opacity:1;isolation:auto;mix-blend-mode:normal;color-interpolation:sRGB;color-interpolation-filters:linearRGB;solid-color:#000000;solid-opacity:1;vector-effect:none;fill:#0064b4;fill-opacity:1;fill-rule:nonzero;stroke:none;stroke-width:0.5862112;stroke-linecap:round;stroke-linejoin:miter;stroke-miterlimit:4;stroke-dasharray:none;stroke-dashoffset:0;stroke-opacity:1;color-rendering:auto;image-rendering:auto;shape-rendering:auto;text-rendering:auto;enable-background:accumulate"
         d="m -300.83594,560.49609 a 1.50015,1.50015 0 1 0 0,3 h 7.25977 a 1.50015,1.50015 0 1 0 0,-3 z"
         id="path16329"
         inkscape:connector-curvature="0" />
      <path
         style="color:#000000;font-style:normal;font-variant:normal;font-weight:normal;font-stretch:normal;font-size:medium;line-height:normal;font-family:sans-serif;font-variant-ligatures:normal;font-variant-position:normal;font-variant-caps:normal;font-variant-numeric:normal;font-variant-alternates:normal;font-feature-settings:normal;text-indent:0;text-align:start;text-decoration:none;text-decoration-line:none;text-decoration-style:solid;text-decoration-color:#000000;letter-spacing:normal;word-spacing:normal;text-transform:none;writing-mode:lr-tb;direction:ltr;text-orientation:mixed;dominant-baseline:auto;baseline-shift:baseline;text-anchor:start;white-space:normal;shape-padding:0;clip-rule:nonzero;display:inline;overflow:visible;visibility:visible;opacity:1;isolation:auto;mix-blend-mode:normal;color-interpolation:sRGB;color-interpolation-filters:linearRGB;solid-color:#000000;solid-opacity:1;vector-effect:none;fill:#0064b4;fill-opacity:1;fill-rule:nonzero;stroke:none;stroke-width:0.5862112;stroke-linecap:round;stroke-linejoin:miter;stroke-miterlimit:4;stroke-dasharray:none;stroke-dashoffset:0;stroke-opacity:1;color-rendering:auto;image-rendering:auto;shape-rendering:auto;text-rendering:auto;enable-background:accumulate"
         d="m -300.83594,569.90234 a 1.50015,1.50015 0 1 0 0,3 h 7.25977 a 1.50015,1.50015 0 1 0 0,-3 z"
         id="path16331"
         inkscape:connector-curvature="0" />
      <path
         style="color:#000000;font-style:normal;font-variant:normal;font-weight:normal;font-stretch:normal;font-size:medium;line-height:normal;font-family:sans-serif;font-variant-ligatures:normal;font-variant-position:normal;font-variant-caps:normal;font-variant-numeric:normal;font-variant-alternates:normal;font-feature-settings:normal;text-indent:0;text-align:start;text-decoration:none;text-decoration-line:none;text-decoration-style:solid;text-decoration-color:#000000;letter-spacing:normal;word-spacing:normal;text-transform:none;writing-mode:lr-tb;direction:ltr;text-orientation:mixed;dominant-baseline:auto;baseline-shift:baseline;text-anchor:start;white-space:normal;shape-padding:0;clip-rule:nonzero;display:inline;overflow:visible;visibility:visible;opacity:1;isolation:auto;mix-blend-mode:normal;color-interpolation:sRGB;color-interpolation-filters:linearRGB;solid-color:#000000;solid-opacity:1;vector-effect:none;fill:#0064b4;fill-opacity:1;fill-rule:nonzero;stroke:none;stroke-width:0.87931669;stroke-linecap:round;stroke-linejoin:miter;stroke-miterlimit:4;stroke-dasharray:none;stroke-dashoffset:0;stroke-opacity:1;color-rendering:auto;image-rendering:auto;shape-rendering:auto;text-rendering:auto;enable-background:accumulate"
         d="m -297.24023,557.37891 a 2.250225,2.250225 0 0 0 -2.21485,2.28125 v 14.83593 a 2.250225,2.250225 0 1 0 4.5,0 v -14.83593 a 2.250225,2.250225 0 0 0 -2.28515,-2.28125 z"
         id="path16333"
         inkscape:connector-curvature="0" />
      <path
         style="color:#000000;font-style:normal;font-variant:normal;font-weight:normal;font-stretch:normal;font-size:medium;line-height:normal;font-family:sans-serif;font-variant-ligatures:normal;font-variant-position:normal;font-variant-caps:normal;font-variant-numeric:normal;font-variant-alternates:normal;font-feature-settings:normal;text-indent:0;text-align:start;text-decoration:none;text-decoration-line:none;text-decoration-style:solid;text-decoration-color:#000000;letter-spacing:normal;word-spacing:normal;text-transform:none;writing-mode:lr-tb;direction:ltr;text-orientation:mixed;dominant-baseline:auto;baseline-shift:baseline;text-anchor:start;white-space:normal;shape-padding:0;clip-rule:nonzero;display:inline;overflow:visible;visibility:visible;opacity:1;isolation:auto;mix-blend-mode:normal;color-interpolation:sRGB;color-interpolation-filters:linearRGB;solid-color:#000000;solid-opacity:1;vector-effect:none;fill:#0064b4;fill-opacity:1;fill-rule:nonzero;stroke:none;stroke-width:1.17242241;stroke-linecap:round;stroke-linejoin:round;stroke-miterlimit:4;stroke-dasharray:none;stroke-dashoffset:0;stroke-opacity:1;color-rendering:auto;image-rendering:auto;shape-rendering:auto;text-rendering:auto;enable-background:accumulate"
         d="m -308.53906,537.3418 a 3.0003,3.0003 0 1 0 0,6 h 14.02734 l -4.29883,5.20898 -2.5625,-3.29687 a 3.0003,3.0003 0 1 0 -4.73437,3.68359 l 4.86133,6.25195 a 3.0003,3.0003 0 0 0 4.68164,0.0664 L -285.83203,542.25 a 3.0003,3.0003 0 0 0 -2.31445,-4.9082 z"
         id="path16337"
         inkscape:connector-curvature="0" />
      <path
         style="color:#000000;font-style:normal;font-variant:normal;font-weight:normal;font-stretch:normal;font-size:medium;line-height:normal;font-family:sans-serif;font-variant-ligatures:normal;font-variant-position:normal;font-variant-caps:normal;font-variant-numeric:normal;font-variant-alternates:normal;font-feature-settings:normal;text-indent:0;text-align:start;text-decoration:none;text-decoration-line:none;text-decoration-style:solid;text-decoration-color:#000000;letter-spacing:normal;word-spacing:normal;text-transform:none;writing-mode:lr-tb;direction:ltr;text-orientation:mixed;dominant-baseline:auto;baseline-shift:baseline;text-anchor:start;white-space:normal;shape-padding:0;clip-rule:nonzero;display:inline;overflow:visible;visibility:visible;opacity:1;isolation:auto;mix-blend-mode:normal;color-interpolation:sRGB;color-interpolation-filters:linearRGB;solid-color:#000000;solid-opacity:1;vector-effect:none;fill:#0064b4;fill-opacity:1;fill-rule:nonzero;stroke:none;stroke-width:1.17242241;stroke-linecap:round;stroke-linejoin:round;stroke-miterlimit:4;stroke-dasharray:none;stroke-dashoffset:0;stroke-opacity:1;color-rendering:auto;image-rendering:auto;shape-rendering:auto;text-rendering:auto;enable-background:accumulate"
         d="m -258.98828,537.9043 a 3.0003,3.0003 0 0 0 -2.0625,0.9082 l -8.21289,8.21484 a 3.0003,3.0003 0 1 0 4.24219,4.24219 l 8.21484,-8.21484 a 3.0003,3.0003 0 0 0 -2.18164,-5.15039 z"
         id="path16339"
         inkscape:connector-curvature="0" />
      <path
         style="color:#000000;font-style:normal;font-variant:normal;font-weight:normal;font-stretch:normal;font-size:medium;line-height:normal;font-family:sans-serif;font-variant-ligatures:normal;font-variant-position:normal;font-variant-caps:normal;font-variant-numeric:normal;font-variant-alternates:normal;font-feature-settings:normal;text-indent:0;text-align:start;text-decoration:none;text-decoration-line:none;text-decoration-style:solid;text-decoration-color:#000000;letter-spacing:normal;word-spacing:normal;text-transform:none;writing-mode:lr-tb;direction:ltr;text-orientation:mixed;dominant-baseline:auto;baseline-shift:baseline;text-anchor:start;white-space:normal;shape-padding:0;clip-rule:nonzero;display:inline;overflow:visible;visibility:visible;opacity:1;isolation:auto;mix-blend-mode:normal;color-interpolation:sRGB;color-interpolation-filters:linearRGB;solid-color:#000000;solid-opacity:1;vector-effect:none;fill:#0064b4;fill-opacity:1;fill-rule:nonzero;stroke:none;stroke-width:1.17242241;stroke-linecap:round;stroke-linejoin:round;stroke-miterlimit:4;stroke-dasharray:none;stroke-dashoffset:0;stroke-opacity:1;color-rendering:auto;image-rendering:auto;shape-rendering:auto;text-rendering:auto;enable-background:accumulate"
         d="m -255.74023,552.72656 a 3.0003,3.0003 0 0 0 -2.09766,0.82227 l -11.42773,10.53711 a 3.0003,3.0003 0 1 0 4.0664,4.41015 l 11.42969,-10.53515 a 3.0003,3.0003 0 0 0 -1.9707,-5.23438 z"
         id="path16341"
         inkscape:connector-curvature="0" />
      <path
         style="color:#000000;font-style:normal;font-variant:normal;font-weight:normal;font-stretch:normal;font-size:medium;line-height:normal;font-family:sans-serif;font-variant-ligatures:normal;font-variant-position:normal;font-variant-caps:normal;font-variant-numeric:normal;font-variant-alternates:normal;font-feature-settings:normal;text-indent:0;text-align:start;text-decoration:none;text-decoration-line:none;text-decoration-style:solid;text-decoration-color:#000000;letter-spacing:normal;word-spacing:normal;text-transform:none;writing-mode:lr-tb;direction:ltr;text-orientation:mixed;dominant-baseline:auto;baseline-shift:baseline;text-anchor:start;white-space:normal;shape-padding:0;clip-rule:nonzero;display:inline;overflow:visible;visibility:visible;opacity:1;isolation:auto;mix-blend-mode:normal;color-interpolation:sRGB;color-interpolation-filters:linearRGB;solid-color:#000000;solid-opacity:1;vector-effect:none;fill:#0064b4;fill-opacity:1;fill-rule:nonzero;stroke:none;stroke-width:1.17242241;stroke-linecap:round;stroke-linejoin:round;stroke-miterlimit:4;stroke-dasharray:none;stroke-dashoffset:0;stroke-opacity:1;color-rendering:auto;image-rendering:auto;shape-rendering:auto;text-rendering:auto;enable-background:accumulate"
         d="m -260.14453,556.67383 a 3.0003,3.0003 0 0 0 -2.95508,3.04297 v 24.07422 a 3.0003,3.0003 0 1 0 6,0 V 559.7168 a 3.0003,3.0003 0 0 0 -3.04492,-3.04297 z"
         id="path16343"
         inkscape:connector-curvature="0" />
      <path
         style="color:#000000;font-style:normal;font-variant:normal;font-weight:normal;font-stretch:normal;font-size:medium;line-height:normal;font-family:sans-serif;font-variant-ligatures:normal;font-variant-position:normal;font-variant-caps:normal;font-variant-numeric:normal;font-variant-alternates:normal;font-feature-settings:normal;text-indent:0;text-align:start;text-decoration:none;text-decoration-line:none;text-decoration-style:solid;text-decoration-color:#000000;letter-spacing:normal;word-spacing:normal;text-transform:none;writing-mode:lr-tb;direction:ltr;text-orientation:mixed;dominant-baseline:auto;baseline-shift:baseline;text-anchor:start;white-space:normal;shape-padding:0;clip-rule:nonzero;display:inline;overflow:visible;visibility:visible;opacity:1;isolation:auto;mix-blend-mode:normal;color-interpolation:sRGB;color-interpolation-filters:linearRGB;solid-color:#000000;solid-opacity:1;vector-effect:none;fill:#0064b4;fill-opacity:1;fill-rule:nonzero;stroke:none;stroke-width:1.17242241;stroke-linecap:round;stroke-linejoin:round;stroke-miterlimit:4;stroke-dasharray:none;stroke-dashoffset:0;stroke-opacity:1;color-rendering:auto;image-rendering:auto;shape-rendering:auto;text-rendering:auto;enable-background:accumulate"
         d="m -231.48438,550.42383 a 3.0003,3.0003 0 0 0 -2.95507,3.04297 v 30.32422 a 3.0003,3.0003 0 1 0 6,0 V 553.4668 a 3.0003,3.0003 0 0 0 -3.04493,-3.04297 z"
         id="path16343-9"
         inkscape:connector-curvature="0" />
      <path
         style="color:#000000;font-style:normal;font-variant:normal;font-weight:normal;font-stretch:normal;font-size:medium;line-height:normal;font-family:sans-serif;font-variant-ligatures:normal;font-variant-position:normal;font-variant-caps:normal;font-variant-numeric:normal;font-variant-alternates:normal;font-feature-settings:normal;text-indent:0;text-align:start;text-decoration:none;text-decoration-line:none;text-decoration-style:solid;text-decoration-color:#000000;letter-spacing:normal;word-spacing:normal;text-transform:none;writing-mode:lr-tb;direction:ltr;text-orientation:mixed;dominant-baseline:auto;baseline-shift:baseline;text-anchor:start;white-space:normal;shape-padding:0;clip-rule:nonzero;display:inline;overflow:visible;visibility:visible;opacity:1;isolation:auto;mix-blend-mode:normal;color-interpolation:sRGB;color-interpolation-filters:linearRGB;solid-color:#000000;solid-opacity:1;vector-effect:none;fill:#0064b4;fill-opacity:1;fill-rule:nonzero;stroke:none;stroke-width:1.17242241;stroke-linecap:round;stroke-linejoin:round;stroke-miterlimit:4;stroke-dasharray:none;stroke-dashoffset:0;stroke-opacity:1;color-rendering:auto;image-rendering:auto;shape-rendering:auto;text-rendering:auto;enable-background:accumulate"
         d="m -244.73242,550.4668 a 3.0003,3.0003 0 1 0 0,6 h 22.13281 a 3.0003,3.0003 0 1 0 0,-6 z"
         id="path16363"
         inkscape:connector-curvature="0" />
      <path
         style="color:#000000;font-style:normal;font-variant:normal;font-weight:normal;font-stretch:normal;font-size:medium;line-height:normal;font-family:sans-serif;font-variant-ligatures:normal;font-variant-position:normal;font-variant-caps:normal;font-variant-numeric:normal;font-variant-alternates:normal;font-feature-settings:normal;text-indent:0;text-align:start;text-decoration:none;text-decoration-line:none;text-decoration-style:solid;text-decoration-color:#000000;letter-spacing:normal;word-spacing:normal;text-transform:none;writing-mode:lr-tb;direction:ltr;text-orientation:mixed;dominant-baseline:auto;baseline-shift:baseline;text-anchor:start;white-space:normal;shape-padding:0;clip-rule:nonzero;display:inline;overflow:visible;visibility:visible;opacity:1;isolation:auto;mix-blend-mode:normal;color-interpolation:sRGB;color-interpolation-filters:linearRGB;solid-color:#000000;solid-opacity:1;vector-effect:none;fill:#0064b4;fill-opacity:1;fill-rule:nonzero;stroke:none;stroke-width:1.17242241;stroke-linecap:round;stroke-linejoin:round;stroke-miterlimit:4;stroke-dasharray:none;stroke-dashoffset:0;stroke-opacity:1;color-rendering:auto;image-rendering:auto;shape-rendering:auto;text-rendering:auto;enable-background:accumulate"
         d="m -242.76758,537.13086 a 3.0003,3.0003 0 1 0 0,6 h 16.42774 a 3.0003,3.0003 0 1 0 0,-6 z"
         id="path16365"
         inkscape:connector-curvature="0" />
    </g>
  </g>
</svg>
