<?xml version="1.0" encoding="UTF-8" standalone="no"?>
<!-- Created with Inkscape (http://www.inkscape.org/) -->

<svg
   xmlns:dc="http://purl.org/dc/elements/1.1/"
   xmlns:cc="http://creativecommons.org/ns#"
   xmlns:rdf="http://www.w3.org/1999/02/22-rdf-syntax-ns#"
   xmlns:svg="http://www.w3.org/2000/svg"
   xmlns="http://www.w3.org/2000/svg"
   xmlns:sodipodi="http://sodipodi.sourceforge.net/DTD/sodipodi-0.dtd"
   xmlns:inkscape="http://www.inkscape.org/namespaces/inkscape"
   width="73.578003cm"
   height="65.181cm"
   viewBox="0 0 735.77999 651.80997"
   version="1.1"
   id="svg8"
   inkscape:version="0.92.2 (5c3e80d, 2017-08-06)"
   sodipodi:docname="99.svg">
  <defs
     id="defs2" />
  <sodipodi:namedview
     id="base"
     pagecolor="#ffffff"
     bordercolor="#666666"
     borderopacity="1.0"
     inkscape:pageopacity="0.0"
     inkscape:pageshadow="2"
     inkscape:zoom="0.13399312"
     inkscape:cx="475.98269"
     inkscape:cy="1205.4253"
     inkscape:document-units="cm"
     inkscape:current-layer="layer1"
     showgrid="false"
     units="cm"
     fit-margin-top="0"
     fit-margin-left="0"
     fit-margin-right="0"
     fit-margin-bottom="0"
     inkscape:snap-global="false"
     inkscape:window-width="1920"
     inkscape:window-height="1057"
     inkscape:window-x="-8"
     inkscape:window-y="-8"
     inkscape:window-maximized="1" />
  <metadata
     id="metadata5">
    <rdf:RDF>
      <cc:Work
         rdf:about="">
        <dc:format>image/svg+xml</dc:format>
        <dc:type
           rdf:resource="http://purl.org/dc/dcmitype/StillImage" />
        <dc:title></dc:title>
      </cc:Work>
    </rdf:RDF>
  </metadata>
  <g
     inkscape:label="Layer 1"
     inkscape:groupmode="layer"
     id="layer1"
     transform="translate(-189.88561,1761.9216)">
    <path
       sodipodi:nodetypes="cccc"
       inkscape:connector-curvature="0"
       id="path997"
       d="m 244.38176,-1707.4201 313.39359,542.8137 313.39374,-542.8133 z"
       style="fill:none;fill-opacity:1;stroke:#000000;stroke-width:104.99999237;stroke-linecap:butt;stroke-linejoin:round;stroke-miterlimit:4;stroke-dasharray:none;stroke-opacity:1" />
    <path
       style="fill:none;fill-opacity:1;stroke:#ffffff;stroke-width:100;stroke-linecap:butt;stroke-linejoin:round;stroke-miterlimit:4;stroke-dasharray:none;stroke-opacity:1"
       d="m 244.38176,-1707.4201 313.39359,542.8137 313.39374,-542.8133 z"
       id="path1110"
       inkscape:connector-curvature="0"
       sodipodi:nodetypes="cccc" />
    <path
       style="fill:#be121e;fill-opacity:1;stroke:#be121e;stroke-width:70;stroke-linecap:butt;stroke-linejoin:round;stroke-miterlimit:4;stroke-dasharray:none;stroke-opacity:1"
       d="m 244.38176,-1707.4201 313.3925,542.8119 313.39264,-542.8115 z"
       id="path1112"
       inkscape:connector-curvature="0"
       sodipodi:nodetypes="cccc" />
    <path
       sodipodi:nodetypes="cccc"
       inkscape:connector-curvature="0"
       id="path946"
       d="m 337.9156,-1653.4199 219.85992,380.8087 219.86005,-380.8084 z"
       style="fill:#ffffff;fill-opacity:1;stroke:#ffffff;stroke-width:20;stroke-linecap:butt;stroke-linejoin:round;stroke-miterlimit:4;stroke-dasharray:none;stroke-opacity:1" />
    <path
       id="path1004"
       d="m 518.73941,-1535.2506 c 1.1152,0.7328 2.2835,0.5842 3.4519,0.5842 3.08,0.053 6.1442,0 9.219,0 0.7965,0 1.6994,0 2.549,0.053 4.4078,0.3186 7.3922,3.5102 7.3922,7.903 0,4.2431 -3.1331,7.611 -7.4666,7.9037 -0.6372,0.053 -1.3276,0.053 -1.9648,0.053 -3.6112,0 -7.0948,-0.053 -10.6104,0 -2.7084,0 -2.8677,0.1593 -2.9208,3.0004 0,0.7328 0,1.5347 0,2.2676 0,9.2944 0,18.5883 0,27.8089 0,1.3914 0,2.7084 -0.5841,3.951 -1.1683,2.9261 -4.036,5.7816 -9.2934,4.976 -3.45178,-0.5842 -6.44163,-4.2431 -6.36724,-7.5378 0,-0.8762 0,-1.7577 0,-2.5596 0,-9.2939 0,-18.5878 0,-27.8817 0,-0.9506 0,-1.9012 0,-2.8571 0,-0.5841 -0.53108,-1.0249 -1.16835,-1.0992 -0.74348,-0.053 -1.43382,-0.053 -2.2835,-0.053 -4.2484,-0.053 -8.41185,0 -12.66022,-0.053 -2.65524,0 -4.83254,-1.025 -6.43632,-3.0748 -1.91183,-2.4163 -2.0711,-5.1247 -1.11522,-7.8304 1.00902,-2.8517 3.23938,-4.4661 6.29293,-4.8325 0.84968,-0.1593 1.91174,-0.053 2.86769,-0.1593 3.61112,0 7.2488,0.053 10.90774,0 1.11522,0 2.2835,0.1593 3.34565,-0.6585 0,-0.2655 0.53101,-0.6585 0.53101,-1.0249 0,-3.2926 0,-6.5134 0,-9.7331 0,-1.5348 -0.53101,-1.9012 -1.91176,-1.9012 -1.80556,-0.053 -3.66426,0 -5.48576,-0.053 -3.66425,-0.1593 -6.36731,-2.1932 -7.54091,-5.5622 -1.48693,-4.1687 0.90275,-8.7814 5.09808,-10.0252 1.16835,-0.3717 2.49597,-0.531 3.66425,-0.531 8.41716,-0.053 16.82903,-0.053 25.24613,0 1.1683,0 2.2835,0.1593 3.4518,0.4248 3.4519,0.8763 5.7088,3.7333 5.8522,7.2451 0,3.7333 -1.9118,6.7327 -5.4114,7.9037 -1.009,0.3186 -2.0711,0.3717 -3.0801,0.531 -0.7435,0.053 -1.5401,0.053 -2.2836,0.1593 -0.6903,0 -1.1151,0.4249 -1.2744,1.025 0,0.2124 0,0.3717 0,0.5841 0,3.4412 0,6.8792 0,10.3188 0,0.1593 0,0.3718 0.531,0.7329"
       style="fill:#0064b4;fill-opacity:1;fill-rule:nonzero;stroke:none;stroke-width:0.35277769"
       inkscape:connector-curvature="0" />
    <path
       sodipodi:nodetypes="csscssccccsscccssccccsccccc"
       id="path1006"
       d="m 655.23023,-1494.3423 c 0.7966,-1.5347 0.6373,-2.857 0.6373,-4.243 v -48.2263 c 0,-1.1736 0,-2.4906 -0.6373,-3.5155 -0.9558,-0.6585 -2.0711,-0.5311 -3.0801,-0.5311 h -10.0262 c -1.5931,0 -3.0801,-0.3717 -4.4077,-1.2426 -2.8676,-1.8321 -3.8766,-4.5352 -3.5049,-7.8303 0.531,-3.0748 2.0711,-5.1247 4.8325,-6.2202 0.5311,-0.2124 1.1152,-0.3718 1.5932,-0.4249 0.5841,-0.053 1.1683,-0.053 1.7524,-0.053 h 47.6405 c 1.009,0 2.1242,0.053 3.1332,0.4249 3.6643,1.1736 5.6397,4.7582 4.9919,8.928 -0.5311,3.4412 -3.4519,6.1474 -7.0258,6.3667 -0.9028,0.053 -1.7525,0.053 -2.6553,0.053 h -12.5911 c -0.7967,0 -1.5401,0 -2.2835,0.053 -1.3808,0.053 -1.7525,0.5311 -1.8056,1.7578 v 2.8517 57.4469 2.5596 c 0,3.4412 -2.496,7.0258 -6.362,7.7571 -2.3897,0.4248 -12.2991,0.531 -14.5667,-0.053 -3.2394,-0.8072 -5.4114,-3.4412 -5.7778,-6.7321 -0.6904,-5.635 3.6642,-8.7087 7.5356,-9.0013 0.7966,0 1.6993,-0.053 2.6552,-0.1593"
       style="fill:#0064b4;fill-opacity:1;fill-rule:nonzero;stroke:none;stroke-width:0.35277769"
       inkscape:connector-curvature="0" />
    <path
       sodipodi:nodetypes="cccccccccccscccccsc"
       id="path1008"
       d="m 594.41443,-1519.9558 c -0.9027,0.8072 -1.487,1.3913 -2.0711,1.9755 -0.7435,0.8072 -1.3807,1.609 -2.1242,2.3419 -1.3276,1.317 -2.9207,2.0498 -4.8325,2.1932 -3.3456,0.2124 -6.07,-0.9505 -7.6843,-3.951 -1.5932,-3.0748 -1.3808,-6.1469 0.7435,-8.928 1.54,-1.9755 18.3105,-21.4416 24.9699,-29.1992 1.009,-1.1683 1.9649,-2.4163 3.0801,-3.3669 4.3015,-3.7333 10.9768,-2.0498 12.7346,3.2182 0.9558,2.9261 0.531,5.7082 -1.5401,8.1229 -1.54,1.8321 -2.9739,3.659 -4.6732,5.4151 -1.487,1.5348 -2.0711,3.2925 -2.0711,5.4157 v 48.2262 3.7333 c -0.531,4.0253 -3.7173,7.3178 -7.833,7.3178 -4.036,0.053 -7.61,-3.1438 -7.902,-7.2445 v -3.1492 -28.3941 c 0,-1.0993 0,-2.2676 -0.7435,-3.7333"
       style="fill:#0064b4;fill-opacity:1;fill-rule:nonzero;stroke:none;stroke-width:0.35277769"
       inkscape:connector-curvature="0" />
    <path
       id="path1010"
       d="m 447.46194,-1518.0531 c -1.00902,0.7329 -1.59316,1.0993 -2.0711,1.5347 -1.59316,1.6091 -3.08004,3.3669 -4.6732,5.0503 -0.63728,0.6585 -1.38076,1.317 -2.1773,1.8321 -3.82359,2.2676 -7.10016,1.025 -9.36772,-1.2426 -2.49597,-2.5597 -2.33664,-7.1713 -0.63728,-9.3672 0.53108,-0.531 0.79655,-1.0249 1.32762,-1.5347 9.0703,-9.953 18.22031,-19.9054 27.365,-29.7845 0.58415,-0.6585 1.16829,-1.2426 1.75243,-1.8321 2.33663,-2.1242 5.04501,-2.2676 7.83301,-1.2427 4.40773,1.6835 6.0699,7.6105 2.86764,11.5621 -1.16828,1.4657 -2.4959,2.8517 -3.82352,4.243 -3.29251,3.7333 -3.08011,2.4907 -3.08011,7.8304 0,14.6362 0,29.272 0,43.9082 0,1.0993 0,2.1242 0,3.2182 0,3.6589 -2.92078,6.5861 -6.73367,7.0252 -2.65531,0.2656 -6.44163,-1.2426 -7.83301,-5.0502 -0.53108,-1.317 -0.53108,-2.634 -0.53108,-3.951 0,-9.5133 0,-18.9537 0,-28.4675 0,-1.0249 0,-2.0499 0,-3.7333"
       style="fill:#0064b4;fill-opacity:1;fill-rule:nonzero;stroke:none;stroke-width:0.35277769"
       inkscape:connector-curvature="0" />
    <path
       id="path1012"
       d="m 508.56455,-1587.5749 c -1.59316,0.8072 -2.33664,1.9755 -3.29252,2.9261 -5.20427,5.7082 -10.46168,11.4165 -15.72972,17.1247 -0.58414,0.7329 -1.27455,1.4604 -1.9649,2.0499 -2.33661,1.9011 -4.99185,2.3419 -7.75329,1.1736 -2.86771,-1.2427 -4.30153,-3.5103 -4.62013,-6.4401 0,-1.9011 0.58414,-3.6589 1.69936,-5.1246 0.79654,-0.9506 1.69936,-1.8268 2.4959,-2.7827 7.39225,-8.0502 14.78445,-16.0998 22.17133,-24.0767 0.53108,-0.5842 1.00902,-1.1736 1.54009,-1.6834 2.70831,-2.5597 6.65935,-3.0005 10.02614,-0.7329 0.7435,0.5311 1.3808,1.0993 1.9649,1.6834 8.7783,7.9769 17.4875,16.0266 26.2711,24.0762 0.531,0.4249 1.009,0.8763 1.3807,1.317 3.0801,3.659 2.3897,7.8304 0,10.5382 -2.7083,3.1438 -7.1745,3.7333 -10.6104,1.317 -1.2745,-0.8072 -2.2835,-1.8321 -3.2925,-2.7827 -5.9265,-5.4889 -11.853,-10.9041 -17.77953,-16.3197 -0.79655,-0.8072 -1.75243,-1.4657 -2.65524,-2.2676"
       style="fill:#0064b4;fill-opacity:1;fill-rule:nonzero;stroke:none;stroke-width:0.35277769"
       inkscape:connector-curvature="0" />
    <path
       sodipodi:nodetypes="ccccccccc"
       id="path1014"
       d="m 428.58309,-1567.523 c 0,-2.1242 0.74348,-3.951 2.17737,-5.635 1.38069,-1.6091 17.36001,-19.3913 23.87065,-26.6364 1.16835,-1.317 2.49597,-2.4163 4.19532,-3.0748 4.08906,-1.4603 8.7782,0.8763 10.09526,5.0503 1.00895,3.0004 0.53101,5.635 -1.69935,7.9764 -2.33664,2.634 -18.2947,20.4178 -23.93441,26.7113 -1.22142,1.317 -2.54911,2.4853 -4.30153,3.1438 -4.30153,1.6834 -10.46168,-1.6835 -10.38736,-7.5372"
       style="fill:#0064b4;fill-opacity:1;fill-rule:nonzero;stroke:none;stroke-width:0.35277769"
       inkscape:connector-curvature="0" />
    <path
       id="path1016"
       d="m 584.75463,-1559.4734 c -3.6111,0 -5.7778,-1.317 -7.2435,-3.8076 -1.4338,-2.634 -1.3807,-5.3418 0,-7.9036 0.5311,-0.8762 1.2214,-1.6834 1.9649,-2.4853 7.1745,-8.3423 14.3436,-16.6851 21.5181,-25.0279 0.7966,-0.9505 1.5932,-1.9011 2.549,-2.7083 4.6733,-3.951 10.3927,-0.9506 11.8531,2.5596 1.009,2.4163 1.009,4.8273 0,7.1713 -0.5311,0.7329 -1.009,1.4604 -1.5401,2.1242 -7.5356,8.7082 -15.1508,17.4902 -22.6864,26.2716 -0.5311,0.5841 -1.009,1.1736 -1.54,1.6834 -1.5401,1.4604 -3.2925,2.2676 -4.8326,2.1242"
       style="fill:#0064b4;fill-opacity:1;fill-rule:nonzero;stroke:none;stroke-width:0.35277769"
       inkscape:connector-curvature="0" />
    <path
       sodipodi:nodetypes="cccscscccc"
       id="path1018"
       d="m 649.81353,-1588.0136 c -1.009,0 -2.0711,-0.053 -3.1332,-0.053 -3.5049,-0.2124 -6.4363,-3.5846 -6.6593,-7.0985 -0.5311,-5.268 3.8236,-8.7087 7.833,-8.7087 h 1.1683 31.6187 c 1.3807,0 2.7614,0.053 4.1422,0.6585 3.2925,1.3914 5.3423,4.9016 4.7794,8.6349 -0.5842,3.8076 -3.7174,6.44 -6.9514,6.5133 -0.956,0 -1.9118,0.053 -2.9208,0.053"
       style="fill:#0064b4;fill-opacity:1;fill-rule:nonzero;stroke:none;stroke-width:0.35277769"
       inkscape:connector-curvature="0" />
    <path
       id="path1020"
       d="m 543.10931,-1488.3419 c 0,4.2431 -2.2835,7.1718 -5.7088,7.9769 -3.3456,0.7328 -6.808,-0.8816 -8.3428,-4.0997 -0.531,-0.5311 -0.531,-1.0249 -0.5841,-1.6091 -1.5932,-5.4889 -3.1332,-10.9773 -4.7795,-16.4657 -0.531,-1.2427 -0.531,-2.4907 0,-3.7333 0.7435,-3.2182 3.4519,-5.5617 6.6594,-5.7816 3.558,-0.2124 6.3673,1.4657 7.6099,4.8326 0.7435,1.8268 1.1683,3.8076 1.7525,5.7077 1.009,3.5846 2.0711,7.1718 3.027,10.7575 0.531,1.0249 0.531,2.0498 0.531,2.4163"
       style="fill:#0064b4;fill-opacity:1;fill-rule:nonzero;stroke:none;stroke-width:0.35277769"
       inkscape:connector-curvature="0" />
    <path
       id="path1022"
       d="m 483.68484,-1480.1457 c -3.66425,0.2124 -7.02578,-2.634 -7.02578,-6.7326 0,-1.0993 0,-2.342 0.53108,-3.3669 1.54002,-5.0503 3.23938,-10.0262 4.7794,-15.0754 0.74348,-2.342 2.1773,-4.0254 4.46085,-4.9016 2.65523,-0.9506 5.09807,-0.4249 7.24349,1.3913 2.12423,1.9012 2.7615,4.2431 2.17729,7.0253 0,0.5841 0,1.0993 -0.531,1.6834 -1.43382,4.6839 -2.97391,9.4405 -4.46087,14.1971 0,0.531 -0.53107,1.0993 -0.69034,1.6091 -1.22142,2.7083 -3.45185,4.2431 -6.51069,4.174"
       style="fill:#0064b4;fill-opacity:1;fill-rule:nonzero;stroke:none;stroke-width:0.35277769"
       inkscape:connector-curvature="0" />
  </g>
</svg>
