<?xml version="1.0" encoding="UTF-8" standalone="no"?>
<!-- Created with Inkscape (http://www.inkscape.org/) -->

<svg
   id="svg1890"
   sodipodi:version="0.32"
   inkscape:version="1.1 (c68e22c387, 2021-05-23)"
   width="500.34357"
   height="500.34357"
   version="1.0"
   sodipodi:docname="Japan_road_sign_213.svg"
   inkscape:output_extension="org.inkscape.output.svg.inkscape"
   xmlns:inkscape="http://www.inkscape.org/namespaces/inkscape"
   xmlns:sodipodi="http://sodipodi.sourceforge.net/DTD/sodipodi-0.dtd"
   xmlns="http://www.w3.org/2000/svg"
   xmlns:svg="http://www.w3.org/2000/svg"
   xmlns:rdf="http://www.w3.org/1999/02/22-rdf-syntax-ns#"
   xmlns:cc="http://creativecommons.org/ns#"
   xmlns:dc="http://purl.org/dc/elements/1.1/">
  <metadata
     id="metadata1895">
    <rdf:RDF>
      <cc:Work
         rdf:about="">
        <dc:format>image/svg+xml</dc:format>
        <dc:type
           rdf:resource="http://purl.org/dc/dcmitype/StillImage" />
      </cc:Work>
    </rdf:RDF>
  </metadata>
  <defs
     id="defs1893">
    <inkscape:perspective
       sodipodi:type="inkscape:persp3d"
       inkscape:vp_x="0 : 235 : 1"
       inkscape:vp_y="0 : 1000 : 0"
       inkscape:vp_z="470 : 235 : 1"
       inkscape:persp3d-origin="235 : 156.66667 : 1"
       id="perspective10" />
    <inkscape:perspective
       id="perspective2390"
       inkscape:persp3d-origin="372.04724 : 350.78739 : 1"
       inkscape:vp_z="744.09448 : 526.18109 : 1"
       inkscape:vp_y="0 : 1000 : 0"
       inkscape:vp_x="0 : 526.18109 : 1"
       sodipodi:type="inkscape:persp3d" />
    <inkscape:perspective
       id="perspective3168"
       inkscape:persp3d-origin="372.04724 : 350.78739 : 1"
       inkscape:vp_z="744.09448 : 526.18109 : 1"
       inkscape:vp_y="0 : 1000 : 0"
       inkscape:vp_x="0 : 526.18109 : 1"
       sodipodi:type="inkscape:persp3d" />
    <inkscape:perspective
       id="perspective2400"
       inkscape:persp3d-origin="372.04724 : 350.78739 : 1"
       inkscape:vp_z="744.09448 : 526.18109 : 1"
       inkscape:vp_y="0 : 1000 : 0"
       inkscape:vp_x="0 : 526.18109 : 1"
       sodipodi:type="inkscape:persp3d" />
    <inkscape:perspective
       id="perspective2391"
       inkscape:persp3d-origin="372.04724 : 350.78739 : 1"
       inkscape:vp_z="744.09448 : 526.18109 : 1"
       inkscape:vp_y="0 : 1000 : 0"
       inkscape:vp_x="0 : 526.18109 : 1"
       sodipodi:type="inkscape:persp3d" />
  </defs>
  <sodipodi:namedview
     inkscape:window-height="705"
     inkscape:window-width="1366"
     inkscape:pageshadow="2"
     inkscape:pageopacity="0.0"
     guidetolerance="10.0"
     gridtolerance="10.0"
     objecttolerance="10.0"
     borderopacity="1.0"
     bordercolor="#666666"
     pagecolor="#ffffff"
     id="base"
     inkscape:zoom="1.2451783"
     inkscape:cx="254.98356"
     inkscape:cy="205.1915"
     inkscape:window-x="-8"
     inkscape:window-y="-8"
     inkscape:current-layer="svg1890"
     showgrid="false"
     fit-margin-top="0.2"
     fit-margin-left="0.2"
     fit-margin-right="0.2"
     fit-margin-bottom="0.2"
     inkscape:window-maximized="1"
     showguides="true"
     inkscape:guide-bbox="true"
     inkscape:pagecheckerboard="0" />
  <path
     style="fill:#fcdc0f;fill-opacity:1;fill-rule:nonzero;stroke:none"
     d="m 496.8946,242.33616 c 4.33196,4.33195 4.33196,11.33928 0,15.67124 L 258.00741,496.89459 c -4.33196,4.33196 -11.33929,4.33196 -15.67125,0 L 3.4489759,258.0074 c -4.33196802,-4.33197 -4.33196502,-11.33928 -8e-6,-15.67124 L 242.33617,3.4489586 c 4.33195,-4.33194945 11.33929,-4.33194345 15.67125,1e-5 z"
     id="path5216"
     inkscape:connector-curvature="0"
     sodipodi:nodetypes="sssssssss" />
  <path
     style="fill:#000000;fill-opacity:1;fill-rule:nonzero;stroke:none"
     d="M 250.17179,12.231763 12.231779,250.17177 250.17179,488.1118 488.11181,250.17178 z m 16.73435,30.875126 190.33054,190.330551 c 9.25965,9.25963 9.25965,24.20902 1e-5,33.46868 L 266.90615,457.23668 c -9.25965,9.25963 -24.20908,9.25963 -33.46871,0 L 43.106879,266.90612 c -9.25963,-9.25964 -9.25964,-24.20905 0,-33.46869 L 233.43744,43.106869 c 9.25965,-9.259653 24.20905,-9.25963 33.4687,2e-5 z"
     id="path17826"
     inkscape:connector-curvature="0"
     sodipodi:nodetypes="cccccsssssssss" />
  <path
     id="path41806"
     style="fill:#000000;fill-opacity:1;fill-rule:nonzero;stroke:none"
     d="M 218.74023 133.26562 C 216.1091 133.2067 213.2056 133.93013 210.08398 135.87891 C 198.32849 145.39641 197.16417 153.91476 200.2793 160.8418 C 200.64 161.64517 199.26321 163.80792 199.73047 164.57031 C 200.39449 165.63601 201.85446 162.08657 202.70703 163.0293 C 203.93668 164.39831 205.66605 165.72711 206.28906 167.75195 C 206.85471 169.55544 207.01018 171.94807 207.625 173.17773 C 208.66611 174.05488 209.43749 172.93208 210.60156 173.58789 C 212.08534 174.43225 213.01074 176.84386 214.48633 177.58984 C 216.15043 178.42601 217.02784 176.84275 218.38867 177.07227 C 219.44083 177.24927 220.54098 177.99929 221.29492 178.5918 C 217.84336 181.8914 213.21261 186.10472 206.95703 191.50195 C 203.24454 196.45875 202.83798 203.65977 204.67383 209.22852 C 210.79333 228.85174 223.52072 246.43463 221.19531 268.46484 L 202.24609 278.03125 C 201.14458 275.86904 198.22765 271.23882 193.88281 273.52344 C 188.8852 276.05285 179.37887 285.55904 178.64453 290.37305 C 176.76789 287.94646 172.44336 287.51758 172.44336 287.51758 C 163.16211 288.12953 161.34615 291.55485 157.0625 299.5918 C 148.3932 315.6861 139.07243 331.84244 137.82812 350.34375 C 140.05154 350.30285 362.51562 350.34375 362.51562 350.34375 L 362.51562 341.10352 L 340.2207 341.10352 C 340.05752 340.87995 339.83267 340.67635 339.58789 340.45117 C 329.93946 322.31701 326.22698 307.2636 316.29297 296.33008 C 314.43672 294.47384 295.66967 237.52062 295.07812 232.99219 C 297.93388 229.48367 329.94016 209.67744 317.15039 198.51953 C 303.87105 187.01485 272.98767 175.00077 255.2207 168.5957 C 244.68396 164.79007 244.06123 167.6787 236.32422 167.55469 C 235.27051 167.36485 233.19566 166.82377 233.03711 165.48828 C 232.56164 163.32409 236.52141 161.70212 233.44727 147.25781 C 233.36527 146.561 237.0228 145.15852 237.24414 144.48633 C 237.39989 143.99446 234.15267 144.25821 234.0625 143.66797 C 234.0625 143.66797 228.13713 133.47607 218.74023 133.26562 z M 271.95117 193.01562 C 275.06734 193.31395 279.62639 195.72464 281.24805 196.45898 C 285.91928 198.56 294.28331 201.90517 296.66992 206.98438 C 298.54656 210.86005 291.54976 215.87742 288.63281 216.69336 C 283.94117 218.01924 281.61514 211.69562 279.5957 208.65625 C 277.00513 204.82137 267.3775 195.45955 269.47852 193.5625 C 270.03437 193.05254 270.91245 192.91618 271.95117 193.01562 z M 226.20898 217.26367 C 228.34177 216.79156 244.07097 226.0887 253.07812 240.04883 C 258.19811 248.02459 242.02179 256.69509 234.61719 261.01953 C 233.3525 254.22688 233.59757 246.88229 231.76172 240.04883 C 230.66021 236.15275 224.39809 228.64618 225.96875 217.48828 C 225.98405 217.36844 226.0668 217.29515 226.20898 217.26367 z M 274.38281 264.79297 C 275.32879 264.77257 275.98614 264.94622 276.67969 265.09961 C 281.94246 266.22153 301.64774 307.95584 314.62109 329.02734 C 316.47735 331.47516 313.6207 334.90172 309.9082 335.51367 C 307.2972 335.98283 308.50143 340.22657 306.40039 341.34766 L 235.78125 341.34766 C 236.3932 323.3767 233.12981 295.83869 239.12695 285.25195 C 243.10462 278.31651 260.27868 269.11616 270.35547 265.64844 C 272.20152 265.0267 273.43684 264.81337 274.38281 264.79297 z M 223.5625 270.40234 C 218.29973 296.06347 221.68459 321.23492 220.05273 328.06836 C 218.42085 335.065 212.81182 334.75999 207.58984 336.28906 C 206.34553 336.59504 203.22497 341.1449 202.02148 340.87891 C 200.67519 340.57376 198.10563 341.00169 196.86133 340.22656 C 189.9055 336.12649 185.39683 324.72265 183.64258 315.07422 C 182.43906 308.44475 181.90922 300.65222 180.64453 293.34961 C 185.47894 295.12428 197.81966 292.98296 202.61328 290.53516 C 207.26411 288.12816 204.67378 282.55917 203.57227 280.66211 L 223.5625 270.40234 z " />
</svg>
