<?xml version="1.0" encoding="UTF-8" standalone="no"?>
<!-- Created with Inkscape (http://www.inkscape.org/) -->

<svg
   width="60.400002cm"
   height="68.861cm"
   viewBox="0 0 604.00003 688.60998"
   version="1.1"
   id="svg825"
   inkscape:version="1.1.2 (b8e25be833, 2022-02-05)"
   sodipodi:docname="Japan_road_sign_407-3.svg"
   xmlns:inkscape="http://www.inkscape.org/namespaces/inkscape"
   xmlns:sodipodi="http://sodipodi.sourceforge.net/DTD/sodipodi-0.dtd"
   xmlns="http://www.w3.org/2000/svg"
   xmlns:svg="http://www.w3.org/2000/svg"
   xmlns:rdf="http://www.w3.org/1999/02/22-rdf-syntax-ns#"
   xmlns:cc="http://creativecommons.org/ns#"
   xmlns:dc="http://purl.org/dc/elements/1.1/">
  <defs
     id="defs819" />
  <sodipodi:namedview
     id="base"
     pagecolor="#ffffff"
     bordercolor="#666666"
     borderopacity="1.0"
     inkscape:pageopacity="0.0"
     inkscape:pageshadow="2"
     inkscape:zoom="0.25000001"
     inkscape:cx="1562"
     inkscape:cy="1694"
     inkscape:document-units="cm"
     inkscape:current-layer="layer1"
     showgrid="false"
     units="cm"
     fit-margin-top="0"
     fit-margin-left="0"
     fit-margin-right="0"
     fit-margin-bottom="0"
     inkscape:snap-global="true"
     inkscape:window-width="1920"
     inkscape:window-height="1001"
     inkscape:window-x="-9"
     inkscape:window-y="-9"
     inkscape:window-maximized="1"
     inkscape:pagecheckerboard="0"
     inkscape:snap-intersection-paths="true"
     inkscape:snap-smooth-nodes="true"
     inkscape:snap-bbox="true"
     inkscape:snap-bbox-edge-midpoints="true"
     inkscape:bbox-nodes="true"
     showguides="true"
     inkscape:guide-bbox="true"
     inkscape:object-paths="false"
     inkscape:snap-bbox-midpoints="true">
    <sodipodi:guide
       position="2,686.60602"
       orientation="0,-1"
       id="guide1094" />
  </sodipodi:namedview>
  <metadata
     id="metadata822">
    <rdf:RDF>
      <cc:Work
         rdf:about="">
        <dc:format>image/svg+xml</dc:format>
        <dc:type
           rdf:resource="http://purl.org/dc/dcmitype/StillImage" />
      </cc:Work>
    </rdf:RDF>
  </metadata>
  <g
     inkscape:label="Layer 1"
     inkscape:groupmode="layer"
     id="layer1"
     transform="translate(-81.55898,1470.5322)">
    <path
       style="display:inline;opacity:1;fill:none;fill-opacity:1;fill-rule:nonzero;stroke:#0064b4;stroke-width:70;stroke-linecap:butt;stroke-linejoin:round;stroke-miterlimit:4;stroke-dasharray:none;stroke-opacity:1;paint-order:fill markers stroke"
       d="m 118.55898,-983.92217 264.99998,-449.60943 265.0001,449.60943 v 164.99998 H 118.55898 Z"
       id="rect1474"
       inkscape:connector-curvature="0"
       sodipodi:nodetypes="cccccc" />
    <path
       sodipodi:nodetypes="cccccc"
       inkscape:connector-curvature="0"
       id="path872"
       d="m 118.55898,-983.92217 264.99998,-449.60943 265.0001,449.60943 v 164.99998 H 118.55898 Z"
       style="display:inline;opacity:1;fill:none;fill-opacity:1;fill-rule:nonzero;stroke:#ffffff;stroke-width:42;stroke-linecap:butt;stroke-linejoin:round;stroke-miterlimit:4;stroke-dasharray:none;stroke-opacity:1;paint-order:fill markers stroke" />
    <path
       style="display:inline;opacity:1;fill:#0064b4;fill-opacity:1;fill-rule:nonzero;stroke:#0064b4;stroke-width:14;stroke-linecap:butt;stroke-linejoin:round;stroke-miterlimit:4;stroke-dasharray:none;stroke-opacity:1;paint-order:fill markers stroke"
       d="m 118.55898,-983.92217 264.99998,-449.60943 265.0001,449.60943 v 164.99998 H 118.55898 Z"
       id="path885"
       inkscape:connector-curvature="0"
       sodipodi:nodetypes="cccccc" />
    <path
       style="display:inline;fill:#ffffff;fill-opacity:1;fill-rule:nonzero;stroke:none;stroke-width:0.352778"
       d="m 622.25736,-873.92233 c 2.3538,0 4.9438,1.81065 5.6999,3.99976 l 10.1141,28.10114 c 1.5976,4.37202 -0.8923,7.89924 -5.5144,7.89924 H 134.55739 c -4.62209,0 -7.11197,-3.52719 -5.51439,-7.89924 l 10.11412,-28.10114 c 0.75612,-2.18911 3.34616,-3.99976 5.69992,-3.99976 z"
       id="path1545"
       inkscape:connector-curvature="0"
       sodipodi:nodetypes="sccssccss" />
    <path
       sodipodi:nodetypes="sccssccss"
       inkscape:connector-curvature="0"
       id="path1613"
       d="m 229.33875,-913.92219 c 1.76531,0 3.70783,-1.3579 4.27492,-2.9998 l 7.58556,-21.0757 c 1.19819,-3.2791 -0.66923,-5.9245 -4.13578,-5.9245 h -67.28096 c -1.76532,0 -3.70784,1.358 -4.27493,2.9999 l -7.58556,21.0757 c -1.19818,3.279 0.66922,5.9244 4.13578,5.9244 z"
       style="display:inline;fill:#ffffff;fill-opacity:1;fill-rule:nonzero;stroke:none;stroke-width:0.352778" />
    <path
       id="path974"
       d="m 562.53861,-941.34291 c -0.35625,0.50884 -0.55982,0.8142 -1.05345,1.11948 -0.7021,0.50884 -1.54189,0.61064 -2.24399,1.11948 -0.50893,0.50895 -0.7024,0.86512 -1.11954,1.11959 -0.63101,0.50885 -1.54188,0.61064 -2.17289,1.11948 -0.50893,0.50885 -0.70221,0.76332 -1.19084,1.11948 -0.7021,0.50886 -1.4045,0.91601 -2.24398,1.1195 -1.47069,0.50894 -2.94639,0.55975 -4.48817,0.55975 -1.47069,0 -3.01768,0 -4.48827,-0.55975 -2.24418,-0.61064 -4.48827,-1.32307 -6.66216,-2.23898 -0.50883,0 -0.7022,-0.81422 -1.11955,-1.11948 -0.7022,-0.50894 -1.61307,-0.61064 -2.24398,-1.11959 -0.83968,-0.61064 -1.26202,-1.83191 -2.24419,-2.23896 -1.19073,-0.50886 -2.59513,-0.55975 -3.92844,-0.55975 -1.26203,0 -2.66653,0 -3.92845,0.55975 -0.7022,0.50884 -1.47069,0.91589 -1.61307,1.67922 -0.63112,1.98459 -0.63112,4.12187 -0.63112,6.17264 0,2.03539 0.20358,4.12177 0.63112,6.10125 0.50882,2.74792 1.33311,5.3279 2.24408,7.85185 0.35605,1.17039 0.98216,2.34078 1.61307,3.35856 0.35615,0.50885 0.7022,0.86511 1.19074,1.1195 2.17299,1.06859 4.27959,2.18817 6.66206,2.79881 2.17289,0.55974 4.48827,0.61064 6.73195,0.55974 9.74733,-0.50886 19.915,-0.91601 29.03132,-1.73012 0.91098,0 1.61308,-0.55984 2.24419,-1.06869 0.91087,-0.61064 1.4044,-1.62833 2.24408,-2.23898 0.7022,-0.50885 1.61318,-0.61063 2.24409,-1.11948 1.47059,-1.17049 2.73271,-2.44265 3.92855,-3.91831 0.50882,-0.71242 0.63081,-1.52664 1.11944,-2.23906 0.35615,-0.50885 0.83968,-0.61064 1.11944,-1.11949 1.19083,-2.18817 2.10171,-4.57984 3.36373,-6.73237 0.20347,-0.50885 0.91077,-0.55974 1.12454,-1.11949 0.77349,-1.73013 1.3994,-3.66383 1.68446,-5.54152 0.051,-0.76332 -0.25456,-1.52664 -0.63101,-2.23907 -0.051,0 -0.30536,-0.50884 -0.55982,-0.55974 -1.05335,-0.50885 -2.17289,-0.96691 -3.29754,-1.11949 -3.15495,-0.50884 -6.3817,-0.55975 -9.53716,-0.55975 -3.15495,0 -6.31091,0 -9.46657,0.55975 -0.83948,0 -1.61307,0.71243 -2.31527,1.11949"
       style="display:none;fill:#ffffff;fill-opacity:1;fill-rule:nonzero;stroke:none;stroke-width:0.352778"
       inkscape:connector-curvature="0" />
    <path
       style="display:inline;fill:#ffffff;fill-opacity:1;fill-rule:nonzero;stroke:none;stroke-width:0.352778"
       d="m 242.33874,-1029.9222 c 1.76531,0 3.70783,-1.3579 4.27492,-2.9998 l 7.58556,-21.0757 c 1.19819,-3.2791 -0.66923,-5.9245 -4.13578,-5.9245 H 209.7825 c -1.76532,0 -3.70784,1.358 -4.27493,2.9999 l -7.58556,21.0757 c -1.19818,3.279 0.66922,5.9244 4.13578,5.9244 z"
       id="path1005"
       inkscape:connector-curvature="0"
       sodipodi:nodetypes="sccssccss" />
    <path
       sodipodi:nodetypes="sccssccss"
       inkscape:connector-curvature="0"
       id="path1007"
       d="m 548.77929,-1029.9222 c -1.76531,0 -3.70783,-1.3579 -4.27492,-2.9997 l -7.58556,-21.0757 c -1.19819,-3.2791 0.66923,-5.9245 4.13578,-5.9245 h 25.28094 c 1.76532,0 3.70784,1.358 4.27493,2.9999 l 7.58557,21.0757 c 1.19818,3.2789 -0.66922,5.9243 -4.13578,5.9243 z"
       style="display:inline;fill:#ffffff;fill-opacity:1;fill-rule:nonzero;stroke:none;stroke-width:0.352778" />
    <path
       id="path1282"
       style="display:none;fill:#000000;fill-opacity:1;stroke-width:0.032032;stroke-linecap:round"
       d="m 322.1913,-1019.997 a 67.738939,67.738947 0 0 0 -67.73902,67.73833 67.738939,67.738947 0 0 0 67.73902,67.73902 67.738939,67.738947 0 0 0 67.73901,-67.73902 67.738939,67.738947 0 0 0 -67.73901,-67.73833 z m 0,14.9086 a 52.830311,52.830316 0 0 1 52.83037,52.82973 52.830311,52.830316 0 0 1 -52.83037,52.83036 52.830311,52.830316 0 0 1 -52.83037,-52.83036 52.830311,52.830316 0 0 1 52.83037,-52.82973 z" />
    <ellipse
       style="display:none;fill:#000000;fill-opacity:1;stroke-width:0.00430468;stroke-linecap:round"
       id="path1677"
       cx="322.19131"
       cy="-952.25867"
       rx="8.5953388"
       ry="8.5953379" />
    <rect
       style="display:none;fill:#00ff00;fill-opacity:1;stroke-width:0.630502;stroke-linecap:round;stroke-miterlimit:4;stroke-dasharray:none"
       id="rect3096"
       width="14.90847"
       height="60.99091"
       x="385.78339"
       y="-1097.4774"
       ry="0" />
    <path
       id="rect3117"
       style="display:none;fill:#00ff00;fill-opacity:1;stroke-width:2.383;stroke-linecap:round;stroke-miterlimit:4;stroke-dasharray:none"
       d="m 1029.209,1345.5566 -50.31447,25.3653 45.98437,91.2129 -126.15429,476.2714 20.57031,5.4493 v 43.1465 h 404.88478 v -43.9512 l 4.9824,-2.5117 -4.9824,-9.8829 z m 33.8828,192.377 197.9863,392.7226 H 959.06836 Z"
       transform="matrix(0.26458334,0,0,0.26458334,81.55898,-1470.5322)" />
    <path
       id="path4666"
       style="display:none;fill:#000000;fill-opacity:1;stroke-width:0.032032;stroke-linecap:round"
       d="m 547.33482,-1019.997 a 67.738939,67.738947 0 0 1 67.73902,67.73833 67.738939,67.738947 0 0 1 -67.73902,67.73902 67.738939,67.738947 0 0 1 -67.73901,-67.73902 67.738939,67.738947 0 0 1 67.73901,-67.73833 z m 0,14.9086 a 52.830311,52.830316 0 0 0 -52.83037,52.82973 52.830311,52.830316 0 0 0 52.83037,52.83036 52.830311,52.830316 0 0 0 52.83037,-52.83036 52.830311,52.830316 0 0 0 -52.83037,-52.82973 z" />
    <path
       id="path8112"
       style="display:none;fill:#00ff00;stroke-width:2.383;stroke-linecap:round"
       d="m 1588.8359,1146.459 h -155.6601 c -15.6081,0 -28.1738,12.5658 -28.1738,28.1739 0,15.6081 12.5657,28.1738 28.1738,28.1738 h 148.8984 c 6.7584,-4e-4 12.2376,5.4779 12.2383,12.2363 4e-4,6.7566 -5.4724,10.5902 -12.2305,12.2363 l -41.3769,10.0645 c -15.1657,3.6896 -24.4045,18.8695 -20.7149,34.0352 l 148.8575,564.1992 c 22.3391,84.3354 73.3457,143.4258 73.3457,143.4258 l 29.1777,-7.7286 7.6191,-23.2929 c -13.0269,-15.4689 -43.1628,-79.5996 -55.6738,-126.8321 l -141.9004,-535.7207 27.6445,-6.7265 c 20.2246,-4.9208 48.5801,-28.6805 48.5801,-63.6602 0,-40.2325 -28.3554,-68.5859 -68.8047,-68.5859 z"
       sodipodi:nodetypes="cssscscccccccccsscc"
       transform="matrix(0.26458334,0,0,0.26458334,81.55898,-1470.5322)" />
    <path
       id="path8605"
       style="display:none;fill:#ff00ff;fill-opacity:1;stroke-width:2.53362;stroke-linecap:round;stroke-miterlimit:4;stroke-dasharray:none"
       d="m 1277.2617,1758.6738 v 45 h 28 v 11.1035 a 146.55645,146.5557 0 0 0 -121.0566,144.0528 146.55645,146.5557 0 0 0 121.0566,144.0547 v 11.1035 h -28 v 45 h 107 v -45 h -28 v -10.8809 a 146.55645,146.5557 0 0 0 121.0567,-144.2773 146.55645,146.5557 0 0 0 -121.0567,-144.0528 v -11.1035 h 28 v -45 z m 79,113.6719 a 90.209461,90.208761 0 0 1 64.711,86.4844 90.209461,90.208761 0 0 1 -64.711,86.4844 z m -51,0.2813 v 172.4062 a 90.209461,90.208761 0 0 1 -64.709,-86.2031 90.209461,90.208761 0 0 1 64.709,-86.2031 z"
       transform="matrix(0.26458334,0,0,0.26458334,81.55898,-1470.5322)" />
    <path
       id="path11393"
       style="display:none;fill:#00ff00;fill-opacity:1;stroke-width:2.383;stroke-linecap:round;stroke-miterlimit:4;stroke-dasharray:none"
       d="M 1534.3281,1470.0195 1318,1949.2246 v 136.9492 l 267.6836,-592.9707 z"
       transform="matrix(0.26458334,0,0,0.26458334,81.55898,-1470.5322)" />
    <rect
       style="display:none;fill:#00ff00;fill-opacity:1;stroke-width:0.970415;stroke-linecap:round;stroke-miterlimit:4;stroke-dasharray:none"
       id="rect4780"
       width="14.90847"
       height="144.48087"
       x="-1087.7123"
       y="-504.06836"
       ry="0"
       transform="rotate(90)" />
    <path
       style="display:none;fill:#aa0000;fill-opacity:1;stroke:none;stroke-width:0.264583px;stroke-linecap:butt;stroke-linejoin:miter;stroke-opacity:1"
       d="m 324.55002,-1122.6152 c 0,-4.2995 40.70296,5.8209 44.10617,7.0859 3.0168,1.0524 3.41437,5.3555 2.38538,6.478 -3.64823,3.5547 -43.96585,3.1805 -43.96585,3.1805 -1.33301,0.011 -2.5257,-1.0289 -2.5257,-2.6192 z"
       id="path11890"
       sodipodi:nodetypes="cccccc" />
    <path
       style="display:inline;fill:#ffffff;fill-opacity:1;stroke:none;stroke-width:0.682206px;stroke-linecap:butt;stroke-linejoin:miter;stroke-opacity:1"
       d="m 280.17592,-1130.8226 -3.1028,2.48 c 0,0 -2.98114,15.0525 -6.50984,16.3216 l -6.41854,0.6487 c -1.09511,-2.7683 -3.80248,-2.1196 -3.80248,-2.1196 -6.69232,-10.3811 -2.12936,-22.0021 -2.12936,-22.0021 l -5.04969,-2.1916 5.29305,-52.8283 39.91064,-67.4774 28.68057,-16.4408 c -1.46267,-3.5073 -0.45107,-27.0445 -0.45107,-27.0445 l -14.72314,-6.5748 c -0.69781,-0.3223 -2.31189,-3.1719 -0.36503,-4.2677 l 14.96648,-6.69 -0.36504,-7.7284 c 12.22872,-7.2089 34.92183,-8.2472 44.04773,-2.4223 l -1.33846,2.5378 c 1.39932,2.9412 0,4.9021 0,4.9021 l 1.39932,1.9609 15.87906,4.7932 v 4.0596 l -14.11477,7.1803 -5.53639,27.6254 c -2.46476,1.2886 -8.28211,2.1304 -10.33707,4.7487 l -1.79761,-0.2058 c -2.08645,0.6118 -2.83183,2.724 -2.83183,2.724 l 0.18246,1.4995 16.89815,11.4629 22.58546,54.32 36.8251,32.6247 -0.55621,3.858 c 3.74561,2.2506 6.22666,3.319 10.98537,10.6105 v 4.4482 l -3.60476,4.5042 c -2.00769,1.9032 -7.7038,2.0214 -9.01186,1.5023 0,0 -4.35762,-1.612 -5.05728,-2.8807 -3.70643,-4.7964 -4.31248,-4.2898 -12.20036,0.4687 l -4.64615,0.8156 -35.1043,-30.9934 -6.53902,36.2949 32.91152,64.724 28.45123,98.13438 c 2.17878,7.5152 17.36377,0.50987 20.28914,7.19789 3.09743,8.31929 -1.53032,12.6947 -5.48816,14.48915 l -32.69036,12.04224 c 0,0 -8.11413,2.93544 -10.00387,-2.71527 l -30.11395,-90.04429 -28.2211,-44.3695 -56.44219,112.06576 c -2.57223,5.10721 -1.37662,11.41866 2.58119,13.21311 2.06499,1.54968 6.71113,8.48246 4.30202,13.53921 -3.01142,5.70945 -13.21665,1.83612 -13.21665,1.83612 l -28.79361,-17.79111 c 0,0 -6.32578,-4.86118 -3.52867,-11.76535 0,0 56.82399,-137.14614 57.43241,-141.76004 -3.94953,-2.9497 -3.74273,-2.5029 -2.92032,-6.9207 -2.79232,-2.0997 -0.90094,-4.2118 -0.82132,-5.3058 -0.0609,-0.721 -1.36889,-1.0094 -1.30807,-1.9898 0.12183,-1.2976 1.42975,-1.5572 1.49057,-2.5089 l -0.3346,-2.1916 9.97768,-76.7049 -21.78053,31.3742 z"
       id="path2041"
       sodipodi:nodetypes="ccccccccccccccccccccccccccccccccccccccccccccccccccccccccccccccc" />
    <path
       id="path1282-7"
       style="display:inline;fill:#0064b4;fill-opacity:1;stroke:#0064b4;stroke-width:5.29167;stroke-linecap:round;stroke-miterlimit:4;stroke-dasharray:none;stroke-opacity:1"
       d="m 460.75342,-1167.1993 c -4.12964,0 -7.45432,3.3247 -7.45432,7.4543 0,4.1297 3.32468,7.4544 7.45432,7.4544 h 39.39604 c 1.78816,-2e-4 3.23786,1.4493 3.23805,3.2375 10e-5,1.7877 -1.44791,2.802 -3.23599,3.2375 l -10.94764,2.6629 c -4.01259,0.9762 -6.45702,4.9926 -5.48082,9.0051 l 12.25095,46.4344 H 367.38548 l -9.54,-18.9234 c 6.59122,-0.4704 11.96946,-1.2202 13.19609,-2.4153 1.02899,-1.1226 0.63143,-5.4253 -2.38538,-6.4777 -3.4032,-1.265 -44.10635,-11.3858 -44.10635,-7.0864 v 14.1253 c 10e-6,1.5903 1.19293,2.6305 2.52594,2.6195 0,0 6.44562,0.059 14.41153,-0.096 l 11.23755,22.2907 -17.22013,65.0115 a 67.738939,67.738947 0 0 0 -13.3134,-1.3317 67.738939,67.738947 0 0 0 -67.73902,67.73798 67.738939,67.738947 0 0 0 67.73902,67.73902 67.738939,67.738947 0 0 0 67.28995,-60.2852 h 6.15672 a 38.776395,38.776197 0 0 0 31.27148,30.66065 v 2.93781 h -7.40833 v 11.90625 h 28.31041 v -11.90625 h -7.40833 v -2.87888 a 38.776395,38.776197 0 0 0 32.02959,-38.1734 38.776395,38.776197 0 0 0 -13.69322,-29.35065 l 41.16803,-91.19493 16.06103,60.8738 a 67.738939,67.738947 0 0 0 -36.37299,59.67178 67.738939,67.738947 0 0 0 67.73902,67.73902 67.738939,67.738947 0 0 0 67.73903,-67.73902 67.738939,67.738947 0 0 0 -67.73903,-67.73798 67.738939,67.738947 0 0 0 -17.4253,2.5786 l -29.93408,-113.0111 7.31427,-1.7798 c 5.35109,-1.3019 12.85349,-7.5883 12.85349,-16.8434 0,-10.6448 -7.50237,-18.1467 -18.20458,-18.1467 z m -85.85213,94.3953 h 108.64919 l -35.73892,79.16829 v -11.58069 h -28.31041 v 11.90624 h 7.40833 v 2.9378 a 38.776395,38.776197 0 0 0 -8.99171,2.89494 z m -12.06593,9.1834 42.7705,84.83876 a 38.776395,38.776197 0 0 0 -9.96786,19.06911 h -6.44196 a 67.738939,67.738947 0 0 0 -39.50457,-54.28457 z m -40.64403,58.5324 a 52.830311,52.830316 0 0 1 9.4356,1.0629 l -11.54658,43.59065 a 8.5953388,8.595338 0 0 0 -6.48437,8.17573 8.5953388,8.595338 0 0 0 8.59535,8.59536 8.5953388,8.595338 0 0 0 4.23591,-1.14154 h 48.03997 a 52.830311,52.830316 0 0 1 -52.27588,45.37657 52.830311,52.830316 0 0 1 -52.83037,-52.83039 52.830311,52.830316 0 0 1 52.83037,-52.82928 z m 225.14336,0 a 52.830311,52.830316 0 0 1 52.83036,52.82928 52.830311,52.830316 0 0 1 -52.83036,52.83039 52.830311,52.830316 0 0 1 -52.83036,-52.83039 52.830311,52.830316 0 0 1 25.39741,-44.76366 l 3.20654,12.15326 c 3.97378,15.00198 11.30117,26.84362 15.72564,33.08583 a 8.5953388,8.595338 0 0 0 8.50077,8.11993 8.5953388,8.595338 0 0 0 8.59534,-8.59536 8.5953388,8.595338 0 0 0 -7.07295,-8.29252 c -3.84016,-7.10446 -8.87526,-18.84042 -11.33729,-28.13523 l -3.81939,-14.41983 a 52.830311,52.830316 0 0 1 13.63429,-1.9817 z m -201.5076,5.67971 a 52.830311,52.830316 0 0 1 28.35434,39.69576 h -38.86894 z m 94.57614,6.09833 h 7.26157 l -1.94508,4.30826 a 38.776395,38.776197 0 0 0 -5.31649,-1.37046 z m -13.49375,18.24387 v 5.42499 l -2.23811,-4.43953 a 23.867922,23.867737 0 0 1 2.23811,-0.98546 z m 25.29406,7.93541 a 23.867922,23.867737 0 0 1 5.32114,14.87249 23.867922,23.867737 0 0 1 -17.12145,22.88233 v -11.61481 z m -39.195,3.03289 2.2107,4.38526 h -4.054 a 23.867922,23.867737 0 0 1 1.8433,-4.38526 z m -1.8433,19.29342 h 15.74424 v 15.35408 a 23.867922,23.867737 0 0 1 -15.74424,-15.35408 z" />
    <path
       id="path1629"
       style="display:inline;fill:#ffffff;fill-opacity:1;fill-rule:nonzero;stroke:none;stroke-width:1.33333"
       d="m 1818.3906,1990.3379 c -11.5432,21.2589 -33.7877,34.5037 -57.9785,34.5215 -24.1908,-0.018 -46.4353,-13.2626 -57.9785,-34.5215 h -26.7813 c -13.1019,0 -20.1594,9.9972 -15.6308,22.3906 l 28.6699,79.6563 c 2.1433,6.2056 9.4842,11.3379 16.1563,11.3379 h 136.7148 c 42.6573,-23.9001 72.6194,-65.3784 81.9043,-113.3848 z"
       transform="matrix(0.26458334,0,0,0.26458334,81.55898,-1470.5322)"
       sodipodi:nodetypes="cccsccsccc" />
    <path
       id="path1493"
       style="display:inline;fill:#ffffff;fill-opacity:1;stroke-width:2.2016;stroke-linecap:round;stroke-miterlimit:4;stroke-dasharray:none"
       d="m 460.75342,-1167.1993 c -4.12964,0 -7.45432,3.3247 -7.45432,7.4543 0,4.1297 3.32468,7.4544 7.45432,7.4544 h 39.39604 c 1.78816,-2e-4 3.23786,1.4493 3.23805,3.2375 10e-5,1.7877 -1.44791,2.802 -3.23599,3.2375 l -10.94764,2.6629 c -4.01259,0.9762 -6.45702,4.9926 -5.48082,9.0051 l 12.25095,46.4344 H 367.38548 l -9.54,-18.9234 c 6.59122,-0.4704 11.96946,-1.2202 13.19609,-2.4153 1.02899,-1.1226 0.63143,-5.4253 -2.38538,-6.4777 -3.4032,-1.265 -44.10635,-11.3858 -44.10635,-7.0864 v 14.1253 c 10e-6,1.5903 1.19293,2.6305 2.52594,2.6195 0,0 6.44562,0.059 14.41153,-0.096 l 11.23755,22.2907 -17.22013,65.0115 a 67.738939,67.738947 0 0 0 -13.3134,-1.3317 67.738939,67.738947 0 0 0 -67.73902,67.73798 67.738939,67.738947 0 0 0 67.73902,67.73902 67.738939,67.738947 0 0 0 67.28995,-60.2852 h 6.15672 a 38.776395,38.776197 0 0 0 31.27148,30.66065 v 2.93781 h -7.40833 v 11.90625 h 28.31041 v -11.90625 h -7.40833 v -2.87888 a 38.776395,38.776197 0 0 0 32.02959,-38.1734 38.776395,38.776197 0 0 0 -13.69322,-29.35065 l 41.16803,-91.19493 16.06103,60.8738 a 67.738939,67.738947 0 0 0 -36.37299,59.67178 67.738939,67.738947 0 0 0 67.73902,67.73902 67.738939,67.738947 0 0 0 67.73903,-67.73902 67.738939,67.738947 0 0 0 -67.73903,-67.73798 67.738939,67.738947 0 0 0 -17.4253,2.5786 l -29.93408,-113.0111 7.31427,-1.7798 c 5.35109,-1.3019 12.85349,-7.5883 12.85349,-16.8434 0,-10.6448 -7.50237,-18.1467 -18.20458,-18.1467 z m -85.85213,94.3953 h 108.64919 l -35.73892,79.16829 v -11.58069 h -28.31041 v 11.90624 h 7.40833 v 2.9378 a 38.776395,38.776197 0 0 0 -8.99171,2.89494 z m -12.06593,9.1834 42.7705,84.83876 a 38.776395,38.776197 0 0 0 -9.96786,19.06911 h -6.44196 a 67.738939,67.738947 0 0 0 -39.50457,-54.28457 z m -40.64403,58.5324 a 52.830311,52.830316 0 0 1 9.4356,1.0629 l -11.54658,43.59065 a 8.5953388,8.595338 0 0 0 -6.48437,8.17573 8.5953388,8.595338 0 0 0 8.59535,8.59536 8.5953388,8.595338 0 0 0 4.23591,-1.14154 h 48.03997 a 52.830311,52.830316 0 0 1 -52.27588,45.37657 52.830311,52.830316 0 0 1 -52.83037,-52.83039 52.830311,52.830316 0 0 1 52.83037,-52.82928 z m 225.14336,0 a 52.830311,52.830316 0 0 1 52.83036,52.82928 52.830311,52.830316 0 0 1 -52.83036,52.83039 52.830311,52.830316 0 0 1 -52.83036,-52.83039 52.830311,52.830316 0 0 1 25.39741,-44.76366 l 3.20654,12.15326 c 3.97378,15.00198 11.30117,26.84362 15.72564,33.08583 a 8.5953388,8.595338 0 0 0 8.50077,8.11993 8.5953388,8.595338 0 0 0 8.59534,-8.59536 8.5953388,8.595338 0 0 0 -7.07295,-8.29252 c -3.84016,-7.10446 -8.87526,-18.84042 -11.33729,-28.13523 l -3.81939,-14.41983 a 52.830311,52.830316 0 0 1 13.63429,-1.9817 z m -201.5076,5.67971 a 52.830311,52.830316 0 0 1 28.35434,39.69576 h -38.86894 z m 94.57614,6.09833 h 7.26157 l -1.94508,4.30826 a 38.776395,38.776197 0 0 0 -5.31649,-1.37046 z m -13.49375,18.24387 v 5.42499 l -2.23811,-4.43953 a 23.867922,23.867737 0 0 1 2.23811,-0.98546 z m 25.29406,7.93541 a 23.867922,23.867737 0 0 1 5.32114,14.87249 23.867922,23.867737 0 0 1 -17.12145,22.88233 v -11.61481 z m -39.195,3.03289 2.2107,4.38526 h -4.054 a 23.867922,23.867737 0 0 1 1.8433,-4.38526 z m -1.8433,19.29342 h 15.74424 v 15.35408 a 23.867922,23.867737 0 0 1 -15.74424,-15.35408 z" />
    <path
       sodipodi:nodetypes="sccssccss"
       inkscape:connector-curvature="0"
       id="path3639"
       d="m 537.77565,-913.92218 c -1.76531,0 -3.70783,-1.3579 -4.27492,-2.9998 l -7.58556,-21.0757 c -1.19819,-3.2791 0.66923,-5.9245 4.13578,-5.9245 h 67.28096 c 1.76532,0 3.70784,1.358 4.27493,2.9999 l 7.58556,21.0757 c 1.19818,3.279 -0.66922,5.9244 -4.13578,5.9244 z"
       style="display:none;fill:#ffffff;fill-opacity:1;fill-rule:nonzero;stroke:none;stroke-width:0.352778"
       inkscape:label="path3639" />
  </g>
</svg>
