<?xml version="1.0" encoding="UTF-8" standalone="no"?>
<!-- Created with Inkscape (http://www.inkscape.org/) -->

<svg
   xmlns:dc="http://purl.org/dc/elements/1.1/"
   xmlns:cc="http://creativecommons.org/ns#"
   xmlns:rdf="http://www.w3.org/1999/02/22-rdf-syntax-ns#"
   xmlns:svg="http://www.w3.org/2000/svg"
   xmlns="http://www.w3.org/2000/svg"
   xmlns:sodipodi="http://sodipodi.sourceforge.net/DTD/sodipodi-0.dtd"
   xmlns:inkscape="http://www.inkscape.org/namespaces/inkscape"
   id="svg1890"
   sodipodi:version="0.32"
   inkscape:version="0.48.2 r9819"
   width="450.05304"
   height="448.58209"
   version="1.0"
   sodipodi:docname="AJAX1.svg">
  <metadata
     id="metadata1895">
    <rdf:RDF>
      <cc:Work
         rdf:about="">
        <dc:format>image/svg+xml</dc:format>
        <dc:type
           rdf:resource="http://purl.org/dc/dcmitype/StillImage" />
      </cc:Work>
    </rdf:RDF>
  </metadata>
  <defs
     id="defs1893" />
  <sodipodi:namedview
     inkscape:window-height="1004"
     inkscape:window-width="1280"
     inkscape:pageshadow="2"
     inkscape:pageopacity="0.0"
     guidetolerance="10.0"
     gridtolerance="10.0"
     objecttolerance="10.0"
     borderopacity="1.0"
     bordercolor="#666666"
     pagecolor="#ffffff"
     id="base"
     inkscape:zoom="1.3601379"
     inkscape:cx="92.205794"
     inkscape:cy="207.51744"
     inkscape:window-x="-8"
     inkscape:window-y="-8"
     inkscape:current-layer="svg1890"
     showgrid="false"
     fit-margin-top="0"
     fit-margin-left="0"
     fit-margin-right="0"
     fit-margin-bottom="0"
     inkscape:window-maximized="1" />
  <path
     sodipodi:type="arc"
     style="color:#000000;fill:#0066b3;fill-opacity:1;fill-rule:evenodd;stroke:none;stroke-width:0.61780667;marker:none;visibility:visible;display:inline;overflow:visible"
     id="path1926"
     sodipodi:cx="316.51202"
     sodipodi:cy="345.74789"
     sodipodi:rx="117.26752"
     sodipodi:ry="105.1364"
     d="m 433.77954,345.74789 a 117.26752,105.1364 0 1 1 -234.53503,0 117.26752,105.1364 0 1 1 234.53503,0 z"
     transform="matrix(1.918916,0,0,2.133334,-382.33347,-513.30469)" />
  <path
     sodipodi:type="arc"
     style="color:#000000;fill:#ffffff;fill-opacity:1;fill-rule:evenodd;stroke:none;stroke-width:0.6240471;marker:none;visibility:visible;display:inline;overflow:visible"
     id="path9909"
     sodipodi:cx="316.51202"
     sodipodi:cy="345.74789"
     sodipodi:rx="117.26752"
     sodipodi:ry="105.1364"
     d="m 433.77954,345.74789 a 117.26752,105.1364 0 1 1 -234.53503,0 117.26752,105.1364 0 1 1 234.53503,0 z"
     transform="matrix(1.899727,0,0,2.112001,-376.25987,-505.92869)" />
  <path
     sodipodi:type="arc"
     style="color:#000000;fill:#0066b3;fill-opacity:1;fill-rule:evenodd;stroke:none;stroke-width:0.66953158;marker:none;visibility:visible;display:inline;overflow:visible"
     id="path9911"
     sodipodi:cx="316.51202"
     sodipodi:cy="345.74789"
     sodipodi:rx="117.26752"
     sodipodi:ry="105.1364"
     d="m 433.77954,345.74789 a 117.26752,105.1364 0 1 1 -234.53503,0 117.26752,105.1364 0 1 1 234.53503,0 z"
     transform="matrix(1.77067,0,0,1.968522,-335.41167,-456.32139)" />
  <path
     style="fill:#ffffff;fill-rule:evenodd;stroke:none"
     d="m 210.77575,374.37073 c -2.48955,0.0104 -3.34996,-1.5831 -3.37156,-5.44724 l 0,-82.853 c -2.89331,-51.79516 -36.54753,-55.80187 -73.91187,-63.4557 L 143.6516,247.56 c 6.81505,21.02235 -8.21173,21.87384 -22.10119,9.21637 L 46.691814,183.72969 c -4.434772,-4.27041 -4.247906,-5.14363 0.21534,-6.14169 l 97.215906,-27.93452 c 29.11172,-9.11191 33.78999,4.37706 21.40673,16.13405 l -21.78899,18.2467 c 21.30122,4.77223 66.09221,14.97532 82.99061,37.84151 13.16191,-16.67957 38.57847,-29.85654 84.24954,-37.407 L 287.15321,165.3938 c -15.19168,-15.03667 -0.85038,-23.20033 18.55506,-16.69471 l 100.33134,28.41363 c 6.33232,1.78013 4.65142,2.45526 0,6.83996 l -73.99723,72.86829 c -13.42544,13.66139 -31.54692,12.7076 -21.18757,-12.68096 l 9.03414,-21.69979 c -29.17405,7.43204 -68.53347,5.80482 -74.038,62.50514 l -0.0892,85.18862 c 0.28485,3.22229 -0.96988,4.1302 -3.45693,4.27752 l -31.52907,-0.0408 z"
     id="path1948"
     sodipodi:nodetypes="cccccccccccccccccccccccc"
     inkscape:connector-curvature="0" />
</svg>
